<svg width="388" height="106" viewBox="0 0 388 106" fill="none" xmlns="http://www.w3.org/2000/svg">
<path d="M103.311 15.52C107.911 16.9 110.901 19.844 110.901 23.892C110.901 29.688 104.829 33 96.6869 33H86.5209C85.9229 33 85.6469 31.804 86.4289 31.62C87.2109 31.436 87.4409 30.7 87.4409 29.09V4.71C87.4409 3.1 87.2109 2.364 86.4289 2.18C85.6469 1.996 85.9229 0.799998 86.5209 0.799998H96.6869C104.507 0.799998 109.061 3.882 109.061 8.712C109.061 11.886 106.991 14.278 103.311 15.52ZM102.161 8.666C102.161 4.986 100.275 2.64 96.6869 2.64H95.1689C94.2949 2.64 93.8809 2.916 93.8809 3.698V14.6H96.6869C100.275 14.6 102.161 12.346 102.161 8.666ZM104.001 23.846C104.001 19.338 100.689 16.44 96.6869 16.44H93.8809V30.102C93.8809 30.838 94.2949 31.16 95.0769 31.16H96.6869C100.689 31.16 104.001 28.354 104.001 23.846ZM112.469 21.96C112.469 15.428 117.943 10 124.567 10C131.145 10 136.619 15.428 136.619 21.96C136.619 28.492 131.145 33.92 124.567 33.92C117.943 33.92 112.469 28.492 112.469 21.96ZM119.047 18.74C119.047 25.778 122.635 31.896 126.269 31.896C128.523 31.896 129.995 29.596 129.995 24.996C129.995 17.912 126.499 12.07 122.773 12.07C120.381 12.07 119.047 14.462 119.047 18.74ZM138.164 21.96C138.164 15.428 143.638 10 150.262 10C156.84 10 162.314 15.428 162.314 21.96C162.314 28.492 156.84 33.92 150.262 33.92C143.638 33.92 138.164 28.492 138.164 21.96ZM144.742 18.74C144.742 25.778 148.33 31.896 151.964 31.896C154.218 31.896 155.69 29.596 155.69 24.996C155.69 17.912 152.194 12.07 148.468 12.07C146.076 12.07 144.742 14.462 144.742 18.74ZM171.955 23.34V29.09C171.955 30.7 172.185 31.436 172.967 31.62C173.749 31.804 173.473 33 172.875 33H164.595C163.997 33 163.721 31.804 164.503 31.62C165.285 31.436 165.515 30.7 165.515 29.09V6.55C165.515 4.94 165.377 4.204 164.595 4.02C163.813 3.836 163.951 2.824 164.503 2.64L169.563 0.799998C171.173 0.799998 171.955 2.088 171.955 3.974V20.626L177.475 15.106C179.223 13.45 179.959 12.208 178.211 11.334C177.475 10.966 177.751 10 178.441 10H185.203C185.985 10 186.123 11.15 185.249 11.38C183.915 11.748 183.087 12.208 181.569 13.726L177.751 17.544L183.823 29.412C184.559 30.792 185.019 31.298 185.985 31.62C186.675 31.85 186.445 33 185.893 33H176.831C176.233 33 176.003 31.988 176.739 31.62C177.291 31.39 177.245 30.884 176.831 29.872L172.967 22.328L171.955 23.34ZM203.859 44.5C200.271 44.5 199.351 40.82 201.145 39.394C201.559 39.072 202.019 38.934 202.479 38.934C203.583 38.934 204.733 39.532 205.883 39.532C206.987 39.532 208.045 38.98 208.919 36.864L209.839 34.564L201.559 13.956C200.823 12.392 200.225 11.61 199.397 11.38C198.615 11.15 198.891 10 199.489 10H208.505C209.103 10 209.379 11.012 208.597 11.38C207.907 11.702 207.953 12.438 208.643 14.324L213.335 25.916L217.705 15.06C218.533 12.852 218.487 11.702 217.383 11.38C216.601 11.15 216.877 10 217.475 10H222.443C223.041 10 223.271 11.058 222.535 11.38C221.661 11.748 220.879 12.392 220.097 14.048L210.897 36.864C209.057 41.372 207.033 44.5 203.859 44.5ZM221.988 21.96C221.988 15.428 227.462 10 234.086 10C240.664 10 246.138 15.428 246.138 21.96C246.138 28.492 240.664 33.92 234.086 33.92C227.462 33.92 221.988 28.492 221.988 21.96ZM228.566 18.74C228.566 25.778 232.154 31.896 235.788 31.896C238.042 31.896 239.514 29.596 239.514 24.996C239.514 17.912 236.018 12.07 232.292 12.07C229.9 12.07 228.566 14.462 228.566 18.74ZM249.293 24.766V15.75C249.293 14.14 249.155 13.404 248.373 13.22C247.591 13.036 247.729 12.024 248.281 11.84L253.341 10C254.951 10 255.733 11.288 255.733 13.174V24.766C255.733 28.768 257.205 30.516 259.229 30.516C261.897 30.516 264.013 27.434 264.013 24.076V15.75C264.013 14.14 263.875 13.404 263.093 13.22C262.311 13.036 262.449 12.024 263.001 11.84L268.061 10C269.671 10 270.453 11.288 270.453 13.174V29.09C270.453 30.7 270.683 31.436 271.465 31.62C272.247 31.804 271.971 33 271.373 33H267.417C265.577 33 264.059 31.666 264.013 29.734C262.357 31.988 259.827 33.46 256.975 33.46C252.237 33.46 249.293 29.412 249.293 24.766ZM292.185 13.772C292.185 15.842 290.759 17.13 289.379 17.13C286.941 17.13 287.493 13.128 285.193 13.128C283.261 13.128 281.789 16.026 281.789 19.384V29.09C281.789 30.7 282.019 31.436 282.801 31.62C283.583 31.804 283.307 33 282.709 33H274.429C273.831 33 273.555 31.804 274.337 31.62C275.119 31.436 275.349 30.7 275.349 29.09V15.75C275.349 14.14 275.211 13.404 274.429 13.22C273.647 13.036 273.785 12.024 274.337 11.84L279.397 10C281.007 10 281.789 11.288 281.789 13.174V13.22C283.215 11.012 285.377 9.54 287.677 9.54C290.299 9.54 292.185 11.426 292.185 13.772ZM193.572 57.38L201.32 86.396L208.444 63.048C209.276 60.032 208.392 58.68 206.676 58.16C205.74 57.9 206.104 56.6 206.78 56.6H213.384C214.06 56.6 214.32 57.796 213.488 58.16C212.5 58.576 211.876 59.408 211.2 61.228L202.88 88.372C202.256 90.4 201.788 93 198.46 93C195.184 93 194.872 90.556 194.3 88.372L189.568 70.744L184.888 88.372C184.316 90.556 183.952 93 180.624 93C177.452 93 177.088 90.764 176.36 88.372L167.988 61.072C167.364 59.304 166.948 58.42 166.012 58.16C165.128 57.9 165.44 56.6 166.116 56.6H175.84C176.516 56.6 176.776 57.692 175.944 58.16C175.268 58.524 175.216 59.408 175.788 61.488L183.328 86.24L191.024 57.38C191.232 56.652 191.596 56.08 192.324 56.08C193.052 56.08 193.364 56.6 193.572 57.38ZM227.32 88.528C229.972 88.528 232 87.384 233.248 85.044C233.456 84.68 233.768 84.524 234.08 84.524C234.704 84.524 235.38 85.2 235.068 86.032C233.404 90.296 229.712 93.52 224.408 93.52C217.076 93.52 211.304 87.384 211.304 80C211.304 72.616 217.076 66.48 224.876 66.48C230.492 66.48 234.496 69.704 234.496 73.344C234.496 75.32 233.3 76.36 231.844 76.828L219.104 80.78C220.196 85.824 223.264 88.528 227.32 88.528ZM218.792 78.7L223.056 77.348C225.396 76.62 227.32 74.8 227.32 72.252C227.32 69.964 225.708 68.612 223.732 68.612C219.728 68.612 218.116 74.384 218.792 78.7ZM250.728 90.452C253.12 90.452 255.148 88.528 255.148 85.2V75.008C255.148 71.576 253.068 69.652 250.676 69.652C247.036 69.652 244.748 73.968 244.748 79.896C244.748 85.668 246.932 90.452 250.728 90.452ZM236.948 80.208C236.948 72.46 242.252 66.48 248.492 66.48C251.352 66.48 253.64 67.728 255.148 69.496V63.1C255.148 61.28 254.992 60.448 254.108 60.24C253.224 60.032 253.38 58.888 254.004 58.68L259.724 56.6C261.544 56.6 262.428 58.056 262.428 60.188V88.58C262.428 90.4 262.688 91.232 263.572 91.44C264.456 91.648 264.144 93 263.468 93H258.216C256.24 93 255.148 92.168 255.148 90.66C253.64 92.324 251.404 93.52 248.492 93.52C242.044 93.52 236.948 87.852 236.948 80.208ZM279.318 90.452C281.71 90.452 283.738 88.528 283.738 85.2V75.008C283.738 71.576 281.658 69.652 279.266 69.652C275.626 69.652 273.338 73.968 273.338 79.896C273.338 85.668 275.522 90.452 279.318 90.452ZM265.538 80.208C265.538 72.46 270.842 66.48 277.082 66.48C279.942 66.48 282.23 67.728 283.738 69.496V63.1C283.738 61.28 283.582 60.448 282.698 60.24C281.814 60.032 281.97 58.888 282.594 58.68L288.314 56.6C290.134 56.6 291.018 58.056 291.018 60.188V88.58C291.018 90.4 291.278 91.232 292.162 91.44C293.046 91.648 292.734 93 292.058 93H286.806C284.83 93 283.738 92.168 283.738 90.66C282.23 92.324 279.994 93.52 277.082 93.52C270.634 93.52 265.538 87.852 265.538 80.208ZM296.508 61.384C296.508 59.252 298.016 57.744 300.148 57.744C302.28 57.744 303.788 59.252 303.788 61.384C303.788 63.516 302.28 65.024 300.148 65.024C298.016 65.024 296.508 63.516 296.508 61.384ZM301.084 67C302.904 67 303.788 68.456 303.788 70.588V88.58C303.788 90.4 304.048 91.232 304.932 91.44C305.816 91.648 305.504 93 304.828 93H295.468C294.792 93 294.48 91.648 295.364 91.44C296.248 91.232 296.508 90.4 296.508 88.58V73.5C296.508 71.68 296.352 70.848 295.468 70.64C294.584 70.432 294.74 69.288 295.364 69.08L301.084 67ZM316.585 70.692C318.457 68.144 321.317 66.48 324.541 66.48C329.897 66.48 333.225 71.056 333.225 76.308V88.58C333.225 90.4 333.485 91.232 334.369 91.44C335.253 91.648 334.941 93 334.265 93H324.905C324.229 93 323.917 91.648 324.801 91.44C325.685 91.232 325.945 90.4 325.945 88.58V76.308C325.945 71.784 324.281 69.808 321.993 69.808C318.977 69.808 316.585 73.292 316.585 77.088V88.58C316.585 90.4 316.845 91.232 317.729 91.44C318.613 91.648 318.301 93 317.625 93H308.265C307.589 93 307.277 91.648 308.161 91.44C309.045 91.232 309.305 90.4 309.305 88.58V73.5C309.305 71.68 309.149 70.848 308.265 70.64C307.381 70.432 307.537 69.288 308.161 69.08L313.881 67C315.701 67 316.585 68.456 316.585 70.588V70.692ZM336.886 77.712C336.886 71.576 342.814 66.48 349.886 66.48C351.654 66.48 353.318 66.792 354.878 67.364C357.478 67.104 358.466 61.852 361.638 61.852C363.042 61.852 364.03 62.892 364.03 64.296C364.03 65.856 362.73 67 360.65 67C358.258 67 356.334 67.468 358.102 69.08C361.014 71.16 362.886 74.28 362.886 77.712C362.886 83.9 356.958 88.996 349.886 88.996C347.91 88.996 345.986 88.632 344.322 87.904C342.086 88.632 341.722 89.516 341.722 90.088C341.722 91.388 343.646 91.7 346.246 91.7C348.898 91.7 352.174 91.336 354.618 91.336C360.806 91.336 364.498 93.624 364.498 97.368C364.498 102.62 356.75 106 349.158 106C344.166 106 336.938 104.544 336.938 100.644C336.938 98.72 338.758 97.056 341.098 96.12C338.758 95.236 337.042 93.884 337.042 91.752C337.042 89.204 339.486 87.696 342.086 86.708C338.966 84.628 336.886 81.352 336.886 77.712ZM344.426 74.8C344.426 81.196 348.066 86.76 351.654 86.76C353.838 86.76 355.346 84.68 355.346 80.468C355.346 74.02 351.81 68.716 348.17 68.716C345.83 68.716 344.426 70.848 344.426 74.8ZM350.614 97.524C348.742 97.524 346.506 97.368 344.426 97.004C343.49 97.524 342.606 98.46 342.606 99.812C342.606 102.256 345.31 103.92 349.73 103.92C353.942 103.92 357.842 102.412 357.842 100.228C357.842 98.408 355.502 97.524 350.614 97.524ZM379.716 89.308C379.716 87.176 381.224 85.668 383.408 85.668C385.592 85.668 387.1 87.176 387.1 89.308C387.1 91.492 385.592 93 383.408 93C381.224 93 379.716 91.492 379.716 89.308ZM382.368 82.392L379.508 59.2C379.3 57.484 380.288 56.08 383.408 56.08C386.528 56.08 387.516 57.484 387.308 59.2L384.448 82.392C384.344 83.328 382.472 83.328 382.368 82.392Z" fill="black"/>
<path d="M2.83998 93V56.6H14.384C24.472 56.6 32.48 64.504 32.48 74.384C32.48 84.784 24.472 93 14.384 93H2.83998ZM24.68 74.384C24.68 65.804 20.156 58.68 14.384 58.68H11.94C10.64 58.68 10.12 59.356 10.12 60.656V88.632C10.12 90.244 10.64 90.92 11.94 90.92H14.384C20.156 90.92 24.68 83.484 24.68 74.384ZM2.83998 93H1.79998C1.12398 93 0.811984 91.648 1.69598 91.44C2.57998 91.232 2.83998 90.4 2.83998 88.58V93ZM2.83998 56.6V61.02C2.83998 59.2 2.57998 58.368 1.69598 58.16C0.811984 57.952 1.12398 56.6 1.79998 56.6H2.83998ZM55.1337 71.264C55.1337 73.604 53.5217 75.06 51.9617 75.06C49.2057 75.06 49.8297 70.536 47.2297 70.536C45.0457 70.536 43.3817 73.812 43.3817 77.608V88.58C43.3817 90.4 43.6417 91.232 44.5257 91.44C45.4097 91.648 45.0977 93 44.4217 93H35.0617C34.3857 93 34.0737 91.648 34.9577 91.44C35.8417 91.232 36.1017 90.4 36.1017 88.58V73.5C36.1017 71.68 35.9457 70.848 35.0617 70.64C34.1777 70.432 34.3337 69.288 34.9577 69.08L40.6777 67C42.4977 67 43.3817 68.456 43.3817 70.588V70.64C44.9937 68.144 47.4377 66.48 50.0377 66.48C53.0017 66.48 55.1337 68.612 55.1337 71.264ZM71.8785 88.528C74.5305 88.528 76.5585 87.384 77.8065 85.044C78.0145 84.68 78.3265 84.524 78.6385 84.524C79.2625 84.524 79.9385 85.2 79.6265 86.032C77.9625 90.296 74.2705 93.52 68.9665 93.52C61.6345 93.52 55.8625 87.384 55.8625 80C55.8625 72.616 61.6345 66.48 69.4345 66.48C75.0505 66.48 79.0545 69.704 79.0545 73.344C79.0545 75.32 77.8585 76.36 76.4025 76.828L63.6625 80.78C64.7545 85.824 67.8225 88.528 71.8785 88.528ZM63.3505 78.7L67.6145 77.348C69.9545 76.62 71.8785 74.8 71.8785 72.252C71.8785 69.964 70.2665 68.612 68.2905 68.612C64.2865 68.612 62.6745 74.384 63.3505 78.7ZM100.175 93C98.095 93 96.327 91.492 96.327 89.256V89.204C94.507 91.388 91.595 93.52 88.007 93.52C84.263 93.52 81.507 91.128 81.507 87.592C81.507 81.352 90.191 76.724 96.327 75.684V75.528C96.327 71.004 94.663 68.56 92.115 68.56C87.799 68.56 89.827 75.788 85.563 75.788C83.691 75.788 82.339 74.384 82.339 72.564C82.339 69.132 87.123 66.48 92.479 66.48C99.083 66.48 103.607 70.536 103.607 75.372V88.58C103.607 90.4 103.867 91.232 104.751 91.44C105.635 91.648 105.323 93 104.647 93H100.175ZM96.327 77.712C91.907 79.064 88.995 82.028 88.995 85.512C88.995 88.112 90.555 89.048 92.011 89.048C94.299 89.048 96.327 86.812 96.327 84.16V77.712ZM116.405 70.692C118.277 68.144 121.137 66.48 124.361 66.48C128.157 66.48 130.913 68.768 132.213 71.992C133.929 68.716 137.257 66.48 141.001 66.48C146.357 66.48 149.685 71.056 149.685 76.308V88.58C149.685 90.4 149.945 91.232 150.829 91.44C151.713 91.648 151.401 93 150.725 93H141.365C140.689 93 140.377 91.648 141.261 91.44C142.145 91.232 142.405 90.4 142.405 88.58V76.308C142.405 71.784 140.741 69.808 138.453 69.808C135.437 69.808 133.045 73.292 133.045 77.088V88.58C133.045 90.4 133.305 91.232 134.189 91.44C135.073 91.648 134.761 93 134.085 93H124.725C124.049 93 123.737 91.648 124.621 91.44C125.505 91.232 125.765 90.4 125.765 88.58V76.308C125.765 71.784 124.101 69.808 121.813 69.808C118.797 69.808 116.405 73.292 116.405 77.088V88.58C116.405 90.4 116.665 91.232 117.549 91.44C118.433 91.648 118.121 93 117.445 93H108.085C107.409 93 107.097 91.648 107.981 91.44C108.865 91.232 109.125 90.4 109.125 88.58V73.5C109.125 71.68 108.969 70.848 108.085 70.64C107.201 70.432 107.357 69.288 107.981 69.08L113.701 67C115.521 67 116.405 68.456 116.405 70.588V70.692Z" fill="#A42D2B"/>
</svg>
