<svg width="167" height="166" viewBox="0 0 167 166" fill="none" xmlns="http://www.w3.org/2000/svg">
<circle cx="83.5" cy="83" r="83" fill="#A42D2B"/>
<path d="M50.5 55.5L76.5 81.5M115.5 55.5L89.5 81.5" stroke="white" stroke-width="6" stroke-linecap="round" stroke-linejoin="round"/>
<path d="M83 94.5C100.949 94.5 115.5 87.2246 115.5 78.25C115.5 69.2754 100.949 62 83 62C65.0507 62 50.5 69.2754 50.5 78.25C50.5 87.2246 65.0507 94.5 83 94.5Z" stroke="white" stroke-width="6" stroke-linecap="round" stroke-linejoin="round"/>
<path d="M66.75 92.55V118.225M83 94.5V120.5M83 120.5C74.3805 120.5 66.114 118.788 60.019 115.74C53.9241 112.693 50.5 108.56 50.5 104.25V78.25M83 120.5C91.6195 120.5 99.886 118.788 105.981 115.74C112.076 112.693 115.5 108.56 115.5 104.25V78.25M99.25 92.55V118.225" stroke="white" stroke-width="6" stroke-linecap="round" stroke-linejoin="round"/>
</svg>
