<svg width="166" height="166" viewBox="0 0 166 166" fill="none" xmlns="http://www.w3.org/2000/svg">
<circle cx="83" cy="83" r="83" fill="#A42D2B"/>
<path fill-rule="evenodd" clip-rule="evenodd" d="M76.5 48.875C71.2025 48.875 67.5625 53.295 67.5625 58.2675C67.5625 64.2475 71.5275 68.83 74.94 71.69C76.9047 73.3333 79.0403 74.7606 81.31 75.9475C81.505 76.045 81.6675 76.1425 81.7975 76.175L81.9275 76.24H81.96C82.61 76.565 83.39 76.565 84.04 76.2725H84.0725L84.2025 76.175C84.3325 76.1425 84.495 76.045 84.69 75.9475C86.9597 74.7606 89.0953 73.3333 91.06 71.69C94.4725 68.83 98.4375 64.2475 98.4375 58.2675C98.4375 53.295 94.7975 48.875 89.5 48.875C87.5825 48.875 85.86 49.2975 84.3 50.24C83.845 50.5325 83.39 50.89 83 51.2475C82.61 50.89 82.155 50.5325 81.7 50.24C80.14 49.2975 78.4175 48.875 76.5 48.875ZM83.78 70.8775C83.4875 71.04 83.2275 71.2025 83 71.3325C82.7725 71.2025 82.5125 71.04 82.22 70.8775C80.7591 70.0127 79.3681 69.0347 78.06 67.9525C74.9725 65.385 72.4375 62.0375 72.4375 58.2675C72.4375 55.57 74.29 53.75 76.5 53.75C77.67 53.75 78.4825 54.01 79.1 54.3675C79.7175 54.7575 80.3025 55.4075 80.8225 56.4475C81.245 57.26 82.09 57.78 83 57.78C83.91 57.78 84.755 57.26 85.1775 56.4475C85.6975 55.4075 86.2825 54.7575 86.9 54.3675C87.5175 54.01 88.33 53.75 89.5 53.75C91.71 53.75 93.5625 55.57 93.5625 58.2675C93.5625 62.0375 91.0275 65.385 87.94 67.9525C86.445 69.22 84.9175 70.195 83.78 70.8775ZM71.625 83C63.11 83 56.1875 89.9225 56.1875 98.4375C56.1875 106.952 63.11 113.875 71.625 113.875C74.355 113.875 76.955 113.16 79.165 111.892C75.8661 108.188 74.0493 103.398 74.0625 98.4375C74.0625 93.27 75.98 88.5575 79.165 84.9825C76.955 83.715 74.355 83 71.625 83ZM71.625 118.75C75.85 118.75 79.75 117.482 83 115.272C86.25 117.482 90.15 118.75 94.375 118.75C105.588 118.75 114.688 109.65 114.688 98.4375C114.688 87.225 105.588 78.125 94.375 78.125C90.15 78.125 86.25 79.3925 83 81.6025C79.75 79.3925 75.85 78.125 71.625 78.125C60.4125 78.125 51.3125 87.225 51.3125 98.4375C51.3125 109.65 60.4125 118.75 71.625 118.75ZM94.375 83C91.645 83 89.045 83.715 86.835 84.9825C90.02 88.5575 91.9375 93.27 91.9375 98.4375C91.9375 103.605 90.02 108.317 86.835 111.892C89.045 113.16 91.645 113.875 94.375 113.875C102.89 113.875 109.812 106.952 109.812 98.4375C109.812 89.9225 102.89 83 94.375 83ZM87.0625 98.4375C87.0625 94.4075 85.535 90.735 83 88.005C80.465 90.735 78.9375 94.4075 78.9375 98.4375C78.9375 102.467 80.465 106.14 83 108.87C85.535 106.14 87.0625 102.467 87.0625 98.4375Z" fill="white"/>
</svg>
