<svg width="173" height="74" viewBox="0 0 173 74" fill="none" xmlns="http://www.w3.org/2000/svg">
<path d="M4.80267 5.779C4.80267 6.94991 3.90302 7.88665 2.69045 7.88665C1.55611 7.88665 0.5 7.06701 0.5 5.38869C0.5 3.59328 1.71257 1.64175 3.51187 0.861139C4.02037 0.626953 4.37241 1.25144 3.90302 1.52466C2.61222 2.22721 1.94726 3.82746 3.00337 3.82746C4.05948 3.82746 4.80267 4.72517 4.80267 5.779ZM9.88765 5.779C9.88765 6.94991 8.988 7.88665 7.77543 7.88665C6.64109 7.88665 5.58498 7.06701 5.58498 5.38869C5.58498 3.59328 6.79755 1.64175 8.59685 0.861139C9.10535 0.626953 9.45738 1.25144 8.988 1.52466C7.6972 2.22721 7.03224 3.82746 8.08835 3.82746C9.14446 3.82746 9.88765 4.72517 9.88765 5.779Z" fill="#A42D2B"/>
<path d="M26.4257 8.78435C26.4257 4.72517 24.2744 2.18818 20.9887 2.18818H19.7762C18.9939 2.18818 18.6027 2.57848 18.6027 3.3591V15.4586H20.9887C24.2744 15.4586 26.4257 12.8435 26.4257 8.78435ZM18.6027 17.0198V24.6308C18.6027 25.9969 18.7983 26.6214 19.4632 26.7775C20.1282 26.9336 19.8935 27.9484 19.385 27.9484H12.3443C11.8358 27.9484 11.6011 26.9336 12.266 26.7775C12.931 26.6214 13.1266 25.9969 13.1266 24.6308V3.94456C13.1266 2.57848 12.931 1.954 12.266 1.79787C11.6011 1.64175 11.8358 0.626953 12.3443 0.626953H20.9887C27.6383 0.626953 32.293 3.7494 32.293 8.74532C32.293 13.7803 27.6383 17.0198 20.9887 17.0198H18.6027Z" fill="#A42D2B"/>
<path d="M37.5568 37.706C34.5058 37.706 33.7235 34.5836 35.249 33.3736C35.601 33.1004 35.9922 32.9833 36.3833 32.9833C37.3221 32.9833 38.3 33.4907 39.2778 33.4907C40.2166 33.4907 41.1163 33.0224 41.8595 31.227L42.6418 29.2754L35.601 11.7897C34.9752 10.4627 34.4667 9.79915 33.7626 9.604C33.0976 9.40884 33.3323 8.43308 33.8408 8.43308H41.5074C42.0159 8.43308 42.2506 9.29175 41.5856 9.604C40.9989 9.87721 41.038 10.5017 41.6248 12.102L45.6145 21.9377L49.3305 12.7264C50.0345 10.853 49.9954 9.87721 49.0567 9.604C48.3917 9.40884 48.6264 8.43308 49.1349 8.43308H53.3593C53.8678 8.43308 54.0634 9.33078 53.4376 9.604C52.6944 9.91624 52.0294 10.4627 51.3644 11.8678L43.5414 31.227C41.9768 35.052 40.2557 37.706 37.5568 37.706Z" fill="#A42D2B"/>
<path d="M67.7791 27.9484C66.2145 27.9484 64.8846 26.8165 64.8846 25.1382V25.0992C63.5155 26.7384 61.3251 28.3387 58.6261 28.3387C55.8098 28.3387 53.7367 26.5433 53.7367 23.8892C53.7367 19.2055 60.269 15.7318 64.8846 14.9512V14.8341C64.8846 11.4384 63.6329 9.604 61.7162 9.604C58.4697 9.604 59.9952 15.0293 56.7877 15.0293C55.3796 15.0293 54.3626 13.9754 54.3626 12.6094C54.3626 10.0333 57.9612 8.04277 61.99 8.04277C66.9577 8.04277 70.3607 11.0872 70.3607 14.717V24.6308C70.3607 25.9969 70.5563 26.6214 71.2212 26.7775C71.8862 26.9336 71.6515 27.9484 71.143 27.9484H67.7791ZM64.8846 16.4734C61.5598 17.4882 59.3693 19.7129 59.3693 22.328C59.3693 24.2795 60.5428 24.9821 61.638 24.9821C63.3591 24.9821 64.8846 23.3037 64.8846 21.3132V16.4734Z" fill="#A42D2B"/>
<path d="M87.1457 27.9484C85.5811 27.9484 84.2512 26.8165 84.2512 25.1382V25.0992C82.8821 26.7384 80.6917 28.3387 77.9927 28.3387C75.1764 28.3387 73.1033 26.5433 73.1033 23.8892C73.1033 19.2055 79.6356 15.7318 84.2512 14.9512V14.8341C84.2512 11.4384 82.9995 9.604 81.0828 9.604C77.8363 9.604 79.3618 15.0293 76.1543 15.0293C74.7462 15.0293 73.7292 13.9754 73.7292 12.6094C73.7292 10.0333 77.3278 8.04277 81.3567 8.04277C86.3243 8.04277 89.7273 11.0872 89.7273 14.717V24.6308C89.7273 25.9969 89.9229 26.6214 90.5878 26.7775C91.2528 26.9336 91.0181 27.9484 90.5096 27.9484H87.1457ZM84.2512 16.4734C80.9264 17.4882 78.7359 19.7129 78.7359 22.328C78.7359 24.2795 79.9094 24.9821 81.0046 24.9821C82.7257 24.9821 84.2512 23.3037 84.2512 21.3132V16.4734Z" fill="#A42D2B"/>
<path d="M108.194 11.6336C108.194 13.39 106.982 14.4828 105.808 14.4828C103.735 14.4828 104.205 11.0872 102.249 11.0872C100.606 11.0872 99.3542 13.5461 99.3542 16.3953V24.6308C99.3542 25.9969 99.5498 26.6214 100.215 26.7775C100.88 26.9336 100.645 27.9484 100.137 27.9484H93.0958C92.5873 27.9484 92.3526 26.9336 93.0176 26.7775C93.6825 26.6214 93.8781 25.9969 93.8781 24.6308V13.3119C93.8781 11.9458 93.7608 11.3213 93.0958 11.1652C92.4308 11.0091 92.5482 10.1504 93.0176 9.9943L97.3202 8.43308C98.6893 8.43308 99.3542 9.52594 99.3542 11.1262V11.1652C100.567 9.29175 102.405 8.04277 104.361 8.04277C106.591 8.04277 108.194 9.64303 108.194 11.6336Z" fill="#A42D2B"/>
<path d="M125.788 19.752V24.6308C125.788 25.9969 125.983 26.6214 126.648 26.7775C127.313 26.9336 127.078 27.9484 126.57 27.9484H119.529C119.021 27.9484 118.786 26.9336 119.451 26.7775C120.116 26.6214 120.311 25.9969 120.311 24.6308V5.50578C120.311 4.13971 120.194 3.51522 119.529 3.3591C118.864 3.20298 118.982 2.3443 119.451 2.18818L123.754 0.626953C125.123 0.626953 125.788 1.71981 125.788 3.32007V17.4492L130.481 12.7655C131.968 11.3604 132.594 10.3065 131.107 9.56497C130.481 9.25272 130.716 8.43308 131.303 8.43308H137.053C137.718 8.43308 137.835 9.40884 137.092 9.604C135.958 9.91624 135.253 10.3065 133.963 11.5946L130.716 14.8341L135.879 24.904C136.505 26.0749 136.896 26.5043 137.718 26.7775C138.304 26.9726 138.109 27.9484 137.639 27.9484H129.934C129.425 27.9484 129.23 27.0897 129.856 26.7775C130.325 26.5823 130.286 26.153 129.934 25.2943L126.648 18.8933L125.788 19.752Z" fill="#A42D2B"/>
<path d="M140.977 4.21777C140.977 2.61751 142.111 1.48563 143.715 1.48563C145.319 1.48563 146.453 2.61751 146.453 4.21777C146.453 5.81803 145.319 6.94991 143.715 6.94991C142.111 6.94991 140.977 5.81803 140.977 4.21777ZM144.419 8.43308C145.788 8.43308 146.453 9.52594 146.453 11.1262V24.6308C146.453 25.9969 146.648 26.6214 147.313 26.7775C147.978 26.9336 147.744 27.9484 147.235 27.9484H140.194C139.686 27.9484 139.451 26.9336 140.116 26.7775C140.781 26.6214 140.977 25.9969 140.977 24.6308V13.3119C140.977 11.9458 140.859 11.3213 140.194 11.1652C139.53 11.0091 139.647 10.1504 140.116 9.9943L144.419 8.43308Z" fill="#A42D2B"/>
<path d="M19.8807 67.9488C19.8807 61.86 5.99483 60.7281 5.99483 52.7268C5.99483 48.5506 9.82812 45.272 15.7736 45.272C21.2498 45.272 24.8092 48.0822 24.8092 50.7753C24.8092 52.0243 24.0269 53.0781 22.6188 53.0781C19.2158 53.0781 20.5848 46.8722 15.1478 46.8722C12.2533 46.8722 10.9233 48.6676 10.9233 50.4631C10.9233 56.3176 24.8092 57.6837 24.8092 65.5289C24.8092 69.6661 20.976 73.374 14.874 73.374C9.43697 73.374 5.99483 70.5638 5.99483 67.9488C5.99483 66.5827 6.89448 65.5289 8.30263 65.5289C11.7057 65.5289 10.1802 71.7738 15.5389 71.7738C18.5117 71.7738 19.8807 69.8613 19.8807 67.9488Z" fill="#A42D2B"/>
<path d="M33.0097 56.2396C34.4178 54.3271 36.5692 53.0781 38.9943 53.0781C43.0232 53.0781 45.5266 56.5128 45.5266 60.4549V69.6661C45.5266 71.0322 45.7221 71.6567 46.3871 71.8128C47.0521 71.9689 46.8174 72.9837 46.3089 72.9837H39.2681C38.7596 72.9837 38.5249 71.9689 39.1899 71.8128C39.8549 71.6567 40.0504 71.0322 40.0504 69.6661V60.4549C40.0504 57.0592 38.7987 55.5761 37.0777 55.5761C34.809 55.5761 33.0097 58.1911 33.0097 61.0404V69.6661C33.0097 71.0322 33.2053 71.6567 33.8702 71.8128C34.5352 71.9689 34.3005 72.9837 33.792 72.9837H26.7513C26.2428 72.9837 26.0081 71.9689 26.673 71.8128C27.338 71.6567 27.5336 71.0322 27.5336 69.6661V50.5411C27.5336 49.175 27.4162 48.5506 26.7513 48.3944C26.0863 48.2383 26.2036 47.3796 26.673 47.2235L30.9757 45.6623C32.3447 45.6623 33.0097 46.7551 33.0097 48.3554V56.2396Z" fill="#A42D2B"/>
<path d="M49.6496 65.9972V58.3472C49.6496 56.9812 49.5322 56.3567 48.8672 56.2006C48.2023 56.0444 48.3196 55.1858 48.789 55.0296L53.0917 53.4684C54.4607 53.4684 55.1257 54.5613 55.1257 56.1615V65.9972C55.1257 69.3929 56.3774 70.8761 58.0984 70.8761C60.3671 70.8761 62.1664 68.261 62.1664 65.4118V58.3472C62.1664 56.9812 62.0491 56.3567 61.3841 56.2006C60.7192 56.0444 60.8365 55.1858 61.3059 55.0296L65.6086 53.4684C66.9776 53.4684 67.6425 54.5613 67.6425 56.1615V69.6661C67.6425 71.0322 67.8381 71.6567 68.5031 71.8128C69.168 71.9689 68.9333 72.9837 68.4249 72.9837H65.0609C63.4963 72.9837 62.2055 71.8518 62.1664 70.2126C60.7583 72.1251 58.6069 73.374 56.1818 73.374C52.1529 73.374 49.6496 69.9393 49.6496 65.9972Z" fill="#A42D2B"/>
<path d="M86.1217 56.6689C86.1217 58.4253 84.9092 59.5182 83.7357 59.5182C81.6626 59.5182 82.132 56.1225 80.1762 56.1225C78.5334 56.1225 77.2817 58.5814 77.2817 61.4307V69.6661C77.2817 71.0322 77.4773 71.6567 78.1422 71.8128C78.8072 71.9689 78.5725 72.9837 78.064 72.9837H71.0233C70.5148 72.9837 70.2801 71.9689 70.945 71.8128C71.61 71.6567 71.8056 71.0322 71.8056 69.6661V58.3472C71.8056 56.9812 71.6882 56.3567 71.0233 56.2006C70.3583 56.0444 70.4757 55.1858 70.945 55.0296L75.2477 53.4684C76.6167 53.4684 77.2817 54.5613 77.2817 56.1615V56.2006C78.4943 54.3271 80.3327 53.0781 82.2884 53.0781C84.518 53.0781 86.1217 54.6784 86.1217 56.6689Z" fill="#A42D2B"/>
<path d="M88.803 65.9972V58.3472C88.803 56.9812 88.6856 56.3567 88.0207 56.2006C87.3557 56.0444 87.473 55.1858 87.9424 55.0296L92.2451 53.4684C93.6141 53.4684 94.2791 54.5613 94.2791 56.1615V65.9972C94.2791 69.3929 95.5308 70.8761 97.2519 70.8761C99.5205 70.8761 101.32 68.261 101.32 65.4118V58.3472C101.32 56.9812 101.202 56.3567 100.538 56.2006C99.8726 56.0444 99.9899 55.1858 100.459 55.0296L104.762 53.4684C106.131 53.4684 106.796 54.5613 106.796 56.1615V69.6661C106.796 71.0322 106.992 71.6567 107.657 71.8128C108.321 71.9689 108.087 72.9837 107.578 72.9837H104.214C102.65 72.9837 101.359 71.8518 101.32 70.2126C99.9117 72.1251 97.7604 73.374 95.3352 73.374C91.3063 73.374 88.803 69.9393 88.803 65.9972Z" fill="#A42D2B"/>
<path d="M123.593 72.9837C122.029 72.9837 120.699 71.8518 120.699 70.1735V70.1345C119.33 71.7738 117.139 73.374 114.44 73.374C111.624 73.374 109.551 71.5786 109.551 68.9245C109.551 64.2409 116.083 60.7671 120.699 59.9865V59.8694C120.699 56.4738 119.447 54.6393 117.53 54.6393C114.284 54.6393 115.809 60.0646 112.602 60.0646C111.194 60.0646 110.177 59.0108 110.177 57.6447C110.177 55.0687 113.775 53.0781 117.804 53.0781C122.772 53.0781 126.175 56.1225 126.175 59.7523V69.6661C126.175 71.0322 126.37 71.6567 127.035 71.8128C127.7 71.9689 127.466 72.9837 126.957 72.9837H123.593ZM120.699 61.5087C117.374 62.5235 115.183 64.7483 115.183 67.3633C115.183 69.3148 116.357 70.0174 117.452 70.0174C119.173 70.0174 120.699 68.3391 120.699 66.3485V61.5087Z" fill="#A42D2B"/>
<path d="M142.96 72.9837C141.395 72.9837 140.065 71.8518 140.065 70.1735V70.1345C138.696 71.7738 136.506 73.374 133.807 73.374C130.991 73.374 128.917 71.5786 128.917 68.9245C128.917 64.2409 135.45 60.7671 140.065 59.9865V59.8694C140.065 56.4738 138.814 54.6393 136.897 54.6393C133.65 54.6393 135.176 60.0646 131.968 60.0646C130.56 60.0646 129.543 59.0108 129.543 57.6447C129.543 55.0687 133.142 53.0781 137.171 53.0781C142.138 53.0781 145.541 56.1225 145.541 59.7523V69.6661C145.541 71.0322 145.737 71.6567 146.402 71.8128C147.067 71.9689 146.832 72.9837 146.324 72.9837H142.96ZM140.065 61.5087C136.74 62.5235 134.55 64.7483 134.55 67.3633C134.55 69.3148 135.723 70.0174 136.819 70.0174C138.54 70.0174 140.065 68.3391 140.065 66.3485V61.5087Z" fill="#A42D2B"/>
<path d="M159.94 69.1197C160.371 68.5342 161.231 69.0807 160.918 69.7442C159.901 71.8909 158.102 73.374 155.559 73.374C151.922 73.374 150.357 70.2906 150.357 66.1924V55.0296H148.714C147.854 55.0296 147.815 53.5465 148.675 53.4684C151.413 53.2342 153.565 51.5169 154.269 47.9651C154.425 47.1845 155.833 47.2625 155.833 48.0822V53.4684H159.823C160.527 53.4684 160.527 55.0296 159.823 55.0296H155.833V66.3095C155.833 68.4952 156.264 70.3296 157.906 70.3296C158.571 70.3296 159.275 70.0174 159.94 69.1197Z" fill="#A42D2B"/>
<path d="M168.049 47.7699C168.049 46.599 168.949 45.6623 170.161 45.6623C171.296 45.6623 172.352 46.4819 172.352 48.1603C172.352 49.9557 171.139 51.9072 169.34 52.6878C168.831 52.922 168.479 52.2975 168.949 52.0243C170.24 51.3217 170.905 49.7215 169.848 49.7215C168.792 49.7215 168.049 48.8238 168.049 47.7699ZM162.964 47.7699C162.964 46.599 163.864 45.6623 165.076 45.6623C166.211 45.6623 167.267 46.4819 167.267 48.1603C167.267 49.9557 166.054 51.9072 164.255 52.6878C163.746 52.922 163.394 52.2975 163.864 52.0243C165.155 51.3217 165.82 49.7215 164.763 49.7215C163.707 49.7215 162.964 48.8238 162.964 47.7699Z" fill="#A42D2B"/>
<path d="M59.876 37.8394C59.8143 37.7777 59.6995 37.694 59.5318 37.5884C59.373 37.4827 59.1744 37.3814 58.9361 37.2845C58.7066 37.1876 58.4551 37.104 58.1814 37.0335C57.9078 36.9543 57.6298 36.9146 57.3474 36.9146C56.8531 36.9146 56.478 37.0071 56.2221 37.192C55.9749 37.377 55.8514 37.6368 55.8514 37.9715C55.8514 38.2269 55.9308 38.4294 56.0897 38.5791C56.2486 38.7289 56.4869 38.8565 56.8046 38.9622C57.1223 39.0679 57.5195 39.1824 57.9961 39.3057C58.6139 39.4554 59.1479 39.6404 59.598 39.8605C60.057 40.0719 60.4056 40.3537 60.6439 40.706C60.891 41.0495 61.0146 41.5074 61.0146 42.0799C61.0146 42.5819 60.9219 43.0134 60.7366 43.3745C60.5512 43.7268 60.2953 44.013 59.9687 44.2332C59.6421 44.4533 59.2715 44.6163 58.8566 44.722C58.4418 44.8188 58.0005 44.8673 57.5327 44.8673C57.065 44.8673 56.5972 44.8188 56.1294 44.722C55.6616 44.6251 55.2115 44.4886 54.779 44.3124C54.3465 44.1275 53.9494 43.9073 53.5875 43.6519L54.3951 42.0799C54.4745 42.1591 54.6157 42.2648 54.8187 42.3969C55.0217 42.5202 55.2689 42.6479 55.5601 42.78C55.8514 42.9033 56.1691 43.009 56.5133 43.0971C56.8575 43.1851 57.2062 43.2292 57.5592 43.2292C58.0535 43.2292 58.4286 43.1455 58.6845 42.9782C58.9405 42.8109 59.0685 42.5731 59.0685 42.2648C59.0685 41.983 58.967 41.7628 58.764 41.6043C58.561 41.4458 58.2785 41.3093 57.9167 41.1948C57.5548 41.0715 57.1267 40.9394 56.6325 40.7985C56.0411 40.6311 55.5469 40.4462 55.1497 40.2436C54.7525 40.0323 54.4569 39.7681 54.2627 39.451C54.0685 39.134 53.9714 38.7377 53.9714 38.2621C53.9714 37.6192 54.1215 37.082 54.4216 36.6504C54.7305 36.2101 55.1453 35.8798 55.666 35.6596C56.1868 35.4307 56.7649 35.3162 57.4003 35.3162C57.8416 35.3162 58.2565 35.3646 58.6448 35.4615C59.042 35.5584 59.4127 35.6861 59.7569 35.8446C60.1011 36.0031 60.41 36.1748 60.6836 36.3598L59.876 37.8394Z" fill="#D58A00"/>
<path d="M61.7206 42.714C61.7206 42.2648 61.8442 41.8729 62.0913 41.5383C62.3472 41.1948 62.7003 40.9306 63.1504 40.7456C63.6005 40.5607 64.1169 40.4682 64.6994 40.4682C64.9906 40.4682 65.2863 40.4902 65.5864 40.5343C65.8865 40.5783 66.1468 40.6488 66.3675 40.7456V40.3757C66.3675 39.9354 66.2351 39.5963 65.9703 39.3585C65.7144 39.1208 65.3304 39.0019 64.8185 39.0019C64.439 39.0019 64.0771 39.0679 63.7329 39.2C63.3887 39.3321 63.0268 39.5259 62.6473 39.7813L62.0781 38.6188C62.537 38.3193 63.0048 38.0948 63.4814 37.945C63.9668 37.7953 64.4743 37.7205 65.0039 37.7205C65.9924 37.7205 66.7602 37.9671 67.3075 38.4602C67.8635 38.9534 68.1415 39.658 68.1415 40.5739V42.78C68.1415 42.965 68.1724 43.0971 68.2342 43.1763C68.3048 43.2556 68.4151 43.304 68.5652 43.3217V44.7616C68.4063 44.788 68.2607 44.81 68.1283 44.8276C68.0047 44.8452 67.8988 44.8541 67.8105 44.8541C67.4575 44.8541 67.1883 44.7748 67.003 44.6163C66.8264 44.4577 66.7161 44.264 66.672 44.035L66.6323 43.6783C66.3322 44.0658 65.9571 44.3653 65.507 44.5766C65.0568 44.788 64.5979 44.8937 64.1301 44.8937C63.6712 44.8937 63.2563 44.8012 62.8856 44.6163C62.5238 44.4225 62.2369 44.1627 62.0251 43.8369C61.8221 43.5022 61.7206 43.1279 61.7206 42.714ZM66.0365 43.0707C66.1336 42.965 66.213 42.8593 66.2748 42.7536C66.3366 42.6479 66.3675 42.5511 66.3675 42.463V41.7628C66.1557 41.6748 65.9262 41.6087 65.6791 41.5647C65.4319 41.5118 65.198 41.4854 64.9774 41.4854C64.5184 41.4854 64.1389 41.5867 63.8388 41.7893C63.5476 41.983 63.402 42.2428 63.402 42.5687C63.402 42.7448 63.4505 42.9121 63.5476 43.0707C63.6447 43.2292 63.7859 43.3569 63.9712 43.4538C64.1566 43.5506 64.3772 43.5991 64.6332 43.5991C64.898 43.5991 65.1583 43.5506 65.4143 43.4538C65.6702 43.3481 65.8776 43.2204 66.0365 43.0707Z" fill="#D58A00"/>
<path d="M73.7445 44.8937C73.2149 44.8937 72.7428 44.7748 72.3279 44.537C71.9131 44.2992 71.5865 43.9734 71.3483 43.5594V44.7616H69.7993V35.118H71.5733V39.0547C71.8204 38.6408 72.1426 38.3149 72.5398 38.0771C72.9458 37.8394 73.4179 37.7205 73.9563 37.7205C74.4065 37.7205 74.8169 37.8173 75.1876 38.0111C75.5583 38.196 75.876 38.4558 76.1408 38.7905C76.4144 39.1252 76.6218 39.5083 76.763 39.9398C76.913 40.3713 76.9881 40.8337 76.9881 41.3269C76.9881 41.8201 76.9042 42.2824 76.7365 42.714C76.5777 43.1455 76.3526 43.5286 76.0613 43.8633C75.7701 44.1891 75.4259 44.4445 75.0287 44.6295C74.6403 44.8056 74.2123 44.8937 73.7445 44.8937ZM73.2547 43.3877C73.5371 43.3877 73.7931 43.3349 74.0225 43.2292C74.2608 43.1147 74.4638 42.965 74.6315 42.78C74.808 42.5951 74.9404 42.3793 75.0287 42.1327C75.1258 41.8773 75.1743 41.6131 75.1743 41.3401C75.1743 40.9614 75.0949 40.6135 74.936 40.2965C74.786 39.9706 74.5742 39.7108 74.3005 39.5171C74.0358 39.3233 73.7224 39.2264 73.3606 39.2264C73.1046 39.2264 72.8575 39.2881 72.6192 39.4114C72.3897 39.5259 72.1823 39.6844 71.997 39.887C71.8204 40.0895 71.6792 40.3185 71.5733 40.5739V42.2252C71.6263 42.4013 71.7101 42.5599 71.8249 42.7008C71.9484 42.8417 72.0896 42.965 72.2485 43.0707C72.4074 43.1675 72.5706 43.2468 72.7383 43.3084C72.9149 43.3613 73.087 43.3877 73.2547 43.3877Z" fill="#D58A00"/>
<path d="M80.7451 44.8937C80.1538 44.8937 79.5889 44.7968 79.0506 44.6031C78.5122 44.4093 78.0488 44.1231 77.6605 43.7444L78.2959 42.5951C78.7107 42.9297 79.1167 43.1763 79.5139 43.3349C79.9199 43.4934 80.3083 43.5727 80.6789 43.5727C81.0232 43.5727 81.2968 43.511 81.4998 43.3877C81.7116 43.2644 81.8175 43.0795 81.8175 42.8329C81.8175 42.6655 81.7601 42.5378 81.6454 42.4498C81.5307 42.3529 81.363 42.2692 81.1423 42.1988C80.9305 42.1283 80.6701 42.0491 80.3612 41.961C79.8493 41.7937 79.4212 41.6307 79.077 41.4722C78.7328 41.3137 78.4724 41.1155 78.2959 40.8777C78.1282 40.6311 78.0444 40.3185 78.0444 39.9398C78.0444 39.4818 78.1591 39.0899 78.3886 38.7641C78.6269 38.4294 78.9535 38.1696 79.3683 37.9847C79.7919 37.7997 80.2862 37.7072 80.8511 37.7072C81.3453 37.7072 81.8131 37.7865 82.2544 37.945C82.6957 38.0948 83.0973 38.3413 83.4591 38.6848L82.7442 39.8077C82.3912 39.5347 82.0558 39.3365 81.7381 39.2132C81.4203 39.0811 81.0982 39.0151 80.7716 39.0151C80.5863 39.0151 80.4098 39.0371 80.2421 39.0811C80.0832 39.1252 79.9508 39.2 79.8449 39.3057C79.7478 39.4026 79.6993 39.5435 79.6993 39.7284C79.6993 39.8958 79.7434 40.0279 79.8316 40.1247C79.9287 40.2128 80.07 40.2921 80.2553 40.3625C80.4495 40.433 80.6834 40.5122 80.957 40.6003C81.513 40.7588 81.9808 40.9218 82.3603 41.0891C82.7486 41.2564 83.0399 41.4634 83.2341 41.71C83.4282 41.9478 83.5253 42.278 83.5253 42.7008C83.5253 43.3877 83.2738 43.9249 82.7707 44.3124C82.2676 44.6999 81.5924 44.8937 80.7451 44.8937Z" fill="#D58A00"/>
<path d="M87.949 44.8937C87.393 44.8937 86.8899 44.8012 86.4398 44.6163C85.9896 44.4225 85.6057 44.1627 85.288 43.8369C84.9702 43.5022 84.7231 43.1235 84.5466 42.7008C84.3789 42.2692 84.2951 41.8157 84.2951 41.3401C84.2951 40.6796 84.4407 40.0763 84.7319 39.5303C85.032 38.9842 85.4557 38.5483 86.0029 38.2225C86.5589 37.8878 87.212 37.7205 87.9622 37.7205C88.7213 37.7205 89.37 37.8878 89.9084 38.2225C90.4468 38.5483 90.8572 38.9842 91.1396 39.5303C91.4309 40.0675 91.5765 40.6488 91.5765 41.274C91.5765 41.3797 91.5721 41.4898 91.5633 41.6043C91.5544 41.71 91.5456 41.7981 91.5368 41.8685H86.175C86.2103 42.2208 86.3118 42.529 86.4795 42.7932C86.656 43.0574 86.8767 43.26 87.1414 43.4009C87.415 43.533 87.7063 43.5991 88.0152 43.5991C88.3683 43.5991 88.6992 43.5154 89.0081 43.3481C89.3259 43.1719 89.5421 42.943 89.6569 42.6611L91.1793 43.0839C91.0116 43.4361 90.7689 43.7488 90.4512 44.0218C90.1423 44.2948 89.776 44.5106 89.3524 44.6691C88.9287 44.8188 88.4609 44.8937 87.949 44.8937ZM86.1353 40.7456H89.7628C89.7275 40.3934 89.626 40.0895 89.4583 39.8341C89.2994 39.5699 89.0876 39.3674 88.8228 39.2264C88.558 39.0767 88.2623 39.0019 87.9358 39.0019C87.618 39.0019 87.3268 39.0767 87.062 39.2264C86.8061 39.3674 86.5942 39.5699 86.4265 39.8341C86.2677 40.0895 86.1706 40.3934 86.1353 40.7456Z" fill="#D58A00"/>
<path d="M96.0098 44.7616V35.3822H99.9948C100.427 35.3822 100.824 35.4703 101.186 35.6464C101.548 35.8226 101.861 36.0604 102.126 36.3598C102.4 36.6592 102.612 36.9939 102.762 37.3638C102.912 37.7337 102.987 38.1124 102.987 38.4999C102.987 39.0283 102.863 39.5303 102.616 40.0059C102.369 40.4814 102.029 40.8689 101.597 41.1684C101.164 41.4678 100.652 41.6175 100.061 41.6175H97.8368V44.7616H96.0098ZM97.8368 40.0191H99.955C100.176 40.0191 100.374 39.9574 100.551 39.8341C100.727 39.7108 100.869 39.5347 100.974 39.3057C101.08 39.0679 101.133 38.7993 101.133 38.4999C101.133 38.174 101.072 37.8966 100.948 37.6676C100.833 37.4386 100.679 37.2669 100.485 37.1524C100.299 37.0379 100.096 36.9807 99.8756 36.9807H97.8368V40.0191Z" fill="#D58A00"/>
<path d="M103.519 42.714C103.519 42.2648 103.643 41.8729 103.89 41.5383C104.146 41.1948 104.499 40.9306 104.949 40.7456C105.399 40.5607 105.915 40.4682 106.498 40.4682C106.789 40.4682 107.085 40.4902 107.385 40.5343C107.685 40.5783 107.945 40.6488 108.166 40.7456V40.3757C108.166 39.9354 108.034 39.5963 107.769 39.3585C107.513 39.1208 107.129 39.0019 106.617 39.0019C106.238 39.0019 105.876 39.0679 105.531 39.2C105.187 39.3321 104.825 39.5259 104.446 39.7813L103.877 38.6188C104.336 38.3193 104.803 38.0948 105.28 37.945C105.765 37.7953 106.273 37.7205 106.802 37.7205C107.791 37.7205 108.559 37.9671 109.106 38.4602C109.662 38.9534 109.94 39.658 109.94 40.5739V42.78C109.94 42.965 109.971 43.0971 110.033 43.1763C110.103 43.2556 110.214 43.304 110.364 43.3217V44.7616C110.205 44.788 110.059 44.81 109.927 44.8276C109.803 44.8452 109.697 44.8541 109.609 44.8541C109.256 44.8541 108.987 44.7748 108.801 44.6163C108.625 44.4577 108.515 44.264 108.47 44.035L108.431 43.6783C108.131 44.0658 107.756 44.3653 107.305 44.5766C106.855 44.788 106.396 44.8937 105.929 44.8937C105.47 44.8937 105.055 44.8012 104.684 44.6163C104.322 44.4225 104.035 44.1627 103.824 43.8369C103.621 43.5022 103.519 43.1279 103.519 42.714ZM107.835 43.0707C107.932 42.965 108.012 42.8593 108.073 42.7536C108.135 42.6479 108.166 42.5511 108.166 42.463V41.7628C107.954 41.6748 107.725 41.6087 107.478 41.5647C107.23 41.5118 106.997 41.4854 106.776 41.4854C106.317 41.4854 105.937 41.5867 105.637 41.7893C105.346 41.983 105.2 42.2428 105.2 42.5687C105.2 42.7448 105.249 42.9121 105.346 43.0707C105.443 43.2292 105.584 43.3569 105.77 43.4538C105.955 43.5506 106.176 43.5991 106.432 43.5991C106.696 43.5991 106.957 43.5506 107.213 43.4538C107.469 43.3481 107.676 43.2204 107.835 43.0707Z" fill="#D58A00"/>
<path d="M113.219 44.7616L110.664 37.8394H112.504L114.251 43.1499L116.012 37.8394H117.694L115.152 44.7616H113.219Z" fill="#D58A00"/>
<path d="M118.631 44.7616V37.8394H120.405V44.7616H118.631ZM118.631 36.875V35.118H120.405V36.875H118.631Z" fill="#D58A00"/>
<path d="M126.162 44.4049C126.012 44.4666 125.831 44.537 125.62 44.6163C125.408 44.6955 125.178 44.7572 124.931 44.8012C124.693 44.8541 124.45 44.8805 124.203 44.8805C123.877 44.8805 123.576 44.8232 123.303 44.7087C123.029 44.5943 122.809 44.4137 122.641 44.1671C122.482 43.9117 122.403 43.5815 122.403 43.1763V39.2H121.489V37.8394H122.403V35.5936H124.177V37.8394H125.633V39.2H124.177V42.5819C124.185 42.8197 124.252 42.9914 124.375 43.0971C124.499 43.2028 124.653 43.2556 124.839 43.2556C125.024 43.2556 125.205 43.2248 125.381 43.1631C125.558 43.1015 125.699 43.0486 125.805 43.0046L126.162 44.4049Z" fill="#D58A00"/>
<path d="M131.217 39.3718C130.679 39.3718 130.198 39.4774 129.774 39.6888C129.35 39.8914 129.046 40.1864 128.86 40.5739V44.7616H127.086V37.8394H128.715V39.3189C128.962 38.8433 129.275 38.469 129.655 38.196C130.034 37.923 130.436 37.7733 130.859 37.7469C130.957 37.7469 131.032 37.7469 131.085 37.7469C131.138 37.7469 131.182 37.7513 131.217 37.7601V39.3718Z" fill="#D58A00"/>
<path d="M131.691 42.714C131.691 42.2648 131.814 41.8729 132.061 41.5383C132.317 41.1948 132.67 40.9306 133.121 40.7456C133.571 40.5607 134.087 40.4682 134.67 40.4682C134.961 40.4682 135.256 40.4902 135.557 40.5343C135.857 40.5783 136.117 40.6488 136.338 40.7456V40.3757C136.338 39.9354 136.205 39.5963 135.94 39.3585C135.685 39.1208 135.301 39.0019 134.789 39.0019C134.409 39.0019 134.047 39.0679 133.703 39.2C133.359 39.3321 132.997 39.5259 132.617 39.7813L132.048 38.6188C132.507 38.3193 132.975 38.0948 133.452 37.945C133.937 37.7953 134.444 37.7205 134.974 37.7205C135.963 37.7205 136.73 37.9671 137.278 38.4602C137.834 38.9534 138.112 39.658 138.112 40.5739V42.78C138.112 42.965 138.143 43.0971 138.204 43.1763C138.275 43.2556 138.385 43.304 138.535 43.3217V44.7616C138.376 44.788 138.231 44.81 138.098 44.8276C137.975 44.8452 137.869 44.8541 137.781 44.8541C137.428 44.8541 137.158 44.7748 136.973 44.6163C136.797 44.4577 136.686 44.264 136.642 44.035L136.602 43.6783C136.302 44.0658 135.927 44.3653 135.477 44.5766C135.027 44.788 134.568 44.8937 134.1 44.8937C133.641 44.8937 133.226 44.8012 132.856 44.6163C132.494 44.4225 132.207 44.1627 131.995 43.8369C131.792 43.5022 131.691 43.1279 131.691 42.714ZM136.007 43.0707C136.104 42.965 136.183 42.8593 136.245 42.7536C136.307 42.6479 136.338 42.5511 136.338 42.463V41.7628C136.126 41.6748 135.896 41.6087 135.649 41.5647C135.402 41.5118 135.168 41.4854 134.948 41.4854C134.489 41.4854 134.109 41.5867 133.809 41.7893C133.518 41.983 133.372 42.2428 133.372 42.5687C133.372 42.7448 133.421 42.9121 133.518 43.0707C133.615 43.2292 133.756 43.3569 133.941 43.4538C134.127 43.5506 134.347 43.5991 134.603 43.5991C134.868 43.5991 135.128 43.5506 135.384 43.4538C135.64 43.3481 135.848 43.2204 136.007 43.0707Z" fill="#D58A00"/>
</svg>
