<svg width="166" height="166" viewBox="0 0 166 166" fill="none" xmlns="http://www.w3.org/2000/svg">
<circle cx="83" cy="83" r="83" fill="#A42D2B"/>
<path d="M55.375 63.5H50.5M115.5 63.5H110.625M68.375 76.5H65.125C60.5295 76.5 58.2318 76.5 56.805 75.07C55.375 73.6465 55.375 71.3487 55.375 66.75C55.375 62.1513 55.375 59.8568 56.805 58.43C58.2285 57 60.5263 57 65.125 57H68.375C72.9705 57 75.2683 57 76.695 58.43C78.125 59.8568 78.125 62.1545 78.125 66.75C78.125 71.3455 78.125 73.6433 76.695 75.07C75.2715 76.5 72.9737 76.5 68.375 76.5Z" stroke="white" stroke-width="4.875" stroke-linecap="round" stroke-linejoin="round"/>
<path d="M112.25 91.9375C112.896 91.9375 113.516 91.6807 113.974 91.2236C114.431 90.7665 114.688 90.1465 114.688 89.5C114.688 88.8535 114.431 88.2335 113.974 87.7764C113.516 87.3193 112.896 87.0625 112.25 87.0625V91.9375ZM112.25 111.438C112.896 111.438 113.516 111.181 113.974 110.724C114.431 110.266 114.688 109.646 114.688 109C114.688 108.354 114.431 107.734 113.974 107.276C113.516 106.819 112.896 106.562 112.25 106.562V111.438ZM109 111.438C109.646 111.438 110.266 111.181 110.724 110.724C111.181 110.266 111.438 109.646 111.438 109C111.438 108.354 111.181 107.734 110.724 107.276C110.266 106.819 109.646 106.562 109 106.562V111.438ZM109 91.9375C109.646 91.9375 110.266 91.6807 110.724 91.2236C111.181 90.7665 111.438 90.1465 111.438 89.5C111.438 88.8535 111.181 88.2335 110.724 87.7764C110.266 87.3193 109.646 87.0625 109 87.0625V91.9375ZM51.3125 99.25C51.3125 100.732 51.3125 101.964 51.3775 102.971C51.449 104.002 51.5985 104.976 51.9918 105.919L56.4963 104.054C56.3923 103.803 56.298 103.423 56.2427 102.64C56.1897 101.511 56.1712 100.38 56.1875 99.25H51.3125ZM63.5 106.562C61.953 106.562 60.913 106.562 60.1102 106.507C59.327 106.452 58.9467 106.358 58.6965 106.254L56.831 110.758C57.7735 111.148 58.7485 111.301 59.7788 111.369C60.7863 111.438 62.0212 111.438 63.5 111.438V106.562ZM51.9918 105.919C52.4405 107.004 53.1019 107.989 53.9316 108.82C54.7614 109.65 55.7466 110.309 56.831 110.758L58.6965 106.254C58.2032 106.05 57.7549 105.75 57.3774 105.373C56.9998 104.995 56.7004 104.547 56.4963 104.054L51.9918 105.919ZM63.5 87.0625C62.018 87.0625 60.7863 87.0625 59.7788 87.1275C58.7687 87.1682 57.7725 87.3769 56.831 87.745L58.6965 92.2463C58.9467 92.1423 59.327 92.048 60.1102 91.9928C61.2393 91.9397 62.3698 91.9212 63.5 91.9375V87.0625ZM56.1875 99.25C56.1875 97.703 56.1875 96.663 56.2427 95.8602C56.298 95.077 56.3923 94.6968 56.4963 94.4465L51.9918 92.581C51.6018 93.5235 51.449 94.4985 51.3807 95.5287C51.3125 96.5362 51.3125 97.7712 51.3125 99.25H56.1875ZM56.831 87.745C55.7463 88.1938 54.7607 88.8519 53.9303 89.6816C53.1 90.5114 52.4413 91.4966 51.9918 92.581L56.4963 94.4465C56.909 93.4488 57.6987 92.659 58.6965 92.2463L56.831 87.745ZM112.25 87.0625H63.5V91.9375H112.25V87.0625ZM63.5 111.438H112.25V106.562H63.5V111.438ZM109 106.562C108.272 106.562 107.316 106.121 106.432 104.791C105.555 103.482 104.938 101.528 104.938 99.25H100.062C100.062 102.357 100.898 105.279 102.376 107.495C103.842 109.696 106.137 111.438 109 111.438V106.562ZM104.938 99.25C104.938 96.9718 105.555 95.0185 106.432 93.7088C107.316 92.3763 108.272 91.9375 109 91.9375V87.0625C106.137 87.0625 103.842 88.8045 102.376 91.0048C100.898 93.2213 100.062 96.143 100.062 99.25H104.938Z" fill="white"/>
<path d="M87.875 63.5C87.875 62.2071 87.3614 60.9671 86.4471 60.0529C85.5329 59.1386 84.2929 58.625 83 58.625C81.7071 58.625 80.4671 59.1386 79.5529 60.0529C78.6386 60.9671 78.125 62.2071 78.125 63.5M97.625 76.5H100.875C105.471 76.5 107.768 76.5 109.195 75.07C110.625 73.6433 110.625 71.3455 110.625 66.75C110.625 62.1545 110.625 59.8568 109.195 58.43C107.771 57 105.474 57 100.875 57H97.625C93.0295 57 90.7317 57 89.305 58.43C87.875 59.8568 87.875 62.1545 87.875 66.75C87.875 71.3455 87.875 73.6433 89.305 75.07C90.7317 76.5 93.0295 76.5 97.625 76.5Z" stroke="white" stroke-width="4.875" stroke-linecap="round" stroke-linejoin="round"/>
</svg>
