<svg width="24" height="24" viewBox="0 0 24 24" fill="none" xmlns="http://www.w3.org/2000/svg">
<g opacity="0.2">
<path d="M11.7001 9.29971C11.7001 10.2545 11.3208 11.1702 10.6457 11.8453C9.97058 12.5204 9.0549 12.8997 8.10012 12.8997C7.14534 12.8997 6.22967 12.5204 5.55454 11.8453C4.87941 11.1702 4.50012 10.2545 4.50012 9.29971C4.50012 8.34493 4.87941 7.42925 5.55454 6.75412C6.22967 6.07899 7.14534 5.69971 8.10012 5.69971C9.0549 5.69971 9.97058 6.07899 10.6457 6.75412C11.3208 7.42925 11.7001 8.34493 11.7001 9.29971Z" fill="#EACAB9"/>
<path fill-rule="evenodd" clip-rule="evenodd" d="M8.10012 10.4997C8.41838 10.4997 8.72361 10.3733 8.94865 10.1482C9.17369 9.92319 9.30012 9.61797 9.30012 9.29971C9.30012 8.98145 9.17369 8.67622 8.94865 8.45118C8.72361 8.22614 8.41838 8.09971 8.10012 8.09971C7.78186 8.09971 7.47664 8.22614 7.25159 8.45118C7.02655 8.67622 6.90012 8.98145 6.90012 9.29971C6.90012 9.61797 7.02655 9.92319 7.25159 10.1482C7.47664 10.3733 7.78186 10.4997 8.10012 10.4997ZM8.10012 12.8997C8.57288 12.8997 9.04101 12.8066 9.47778 12.6257C9.91455 12.4448 10.3114 12.1796 10.6457 11.8453C10.98 11.511 11.2452 11.1141 11.4261 10.6774C11.607 10.2406 11.7001 9.77247 11.7001 9.29971C11.7001 8.82695 11.607 8.35882 11.4261 7.92205C11.2452 7.48527 10.98 7.08841 10.6457 6.75412C10.3114 6.41983 9.91455 6.15466 9.47778 5.97374C9.04101 5.79282 8.57288 5.69971 8.10012 5.69971C7.14534 5.69971 6.22967 6.07899 5.55454 6.75412C4.87941 7.42925 4.50012 8.34493 4.50012 9.29971C4.50012 10.2545 4.87941 11.1702 5.55454 11.8453C6.22967 12.5204 7.14534 12.8997 8.10012 12.8997Z" fill="#EACAB9"/>
<path fill-rule="evenodd" clip-rule="evenodd" d="M8.16008 13.7999C7.68269 13.7999 7.22486 13.9895 6.88729 14.3271C6.54973 14.6647 6.36008 15.1225 6.36008 15.5999V17.3999C6.36008 17.7182 6.23365 18.0234 6.00861 18.2484C5.78357 18.4735 5.47834 18.5999 5.16008 18.5999C4.84182 18.5999 4.5366 18.4735 4.31155 18.2484C4.08651 18.0234 3.96008 17.7182 3.96008 17.3999V15.5999C3.96008 14.486 4.40258 13.4177 5.19023 12.6301C5.97789 11.8424 7.04617 11.3999 8.16008 11.3999C9.27399 11.3999 10.3423 11.8424 11.1299 12.6301C11.9176 13.4177 12.3601 14.486 12.3601 15.5999V16.1999C12.3601 16.5182 12.2337 16.8234 12.0086 17.0484C11.7836 17.2735 11.4783 17.3999 11.1601 17.3999C10.8418 17.3999 10.5366 17.2735 10.3116 17.0484C10.0865 16.8234 9.96008 16.5182 9.96008 16.1999V15.5999C9.96008 15.1225 9.77044 14.6647 9.43288 14.3271C9.09531 13.9895 8.63747 13.7999 8.16008 13.7999Z" fill="#EACAB9"/>
<path d="M15.3 9.29971C15.3 10.2545 15.6793 11.1702 16.3545 11.8453C17.0296 12.5204 17.9453 12.8997 18.9 12.8997C19.8548 12.8997 20.7705 12.5204 21.4456 11.8453C22.1208 11.1702 22.5 10.2545 22.5 9.29971C22.5 8.34493 22.1208 7.42925 21.4456 6.75412C20.7705 6.07899 19.8548 5.69971 18.9 5.69971C17.9453 5.69971 17.0296 6.07899 16.3545 6.75412C15.6793 7.42925 15.3 8.34493 15.3 9.29971Z" fill="#EACAB9"/>
<path fill-rule="evenodd" clip-rule="evenodd" d="M18.9 10.4997C18.5818 10.4997 18.2766 10.3733 18.0515 10.1482C17.8265 9.92319 17.7 9.61797 17.7 9.29971C17.7 8.98145 17.8265 8.67622 18.0515 8.45118C18.2766 8.22614 18.5818 8.09971 18.9 8.09971C19.2183 8.09971 19.5235 8.22614 19.7486 8.45118C19.9736 8.67622 20.1 8.98145 20.1 9.29971C20.1 9.61797 19.9736 9.92319 19.7486 10.1482C19.5235 10.3733 19.2183 10.4997 18.9 10.4997ZM18.9 12.8997C18.4273 12.8997 17.9592 12.8066 17.5224 12.6257C17.0856 12.4448 16.6888 12.1796 16.3545 11.8453C16.0202 11.511 15.755 11.1141 15.5741 10.6774C15.3932 10.2406 15.3 9.77247 15.3 9.29971C15.3 8.82695 15.3932 8.35882 15.5741 7.92205C15.755 7.48527 16.0202 7.08841 16.3545 6.75412C16.6888 6.41983 17.0856 6.15466 17.5224 5.97374C17.9592 5.79282 18.4273 5.69971 18.9 5.69971C19.8548 5.69971 20.7705 6.07899 21.4456 6.75412C22.1208 7.42925 22.5 8.34493 22.5 9.29971C22.5 10.2545 22.1208 11.1702 21.4456 11.8453C20.7705 12.5204 19.8548 12.8997 18.9 12.8997Z" fill="#EACAB9"/>
<path fill-rule="evenodd" clip-rule="evenodd" d="M18.8401 13.7999C19.3175 13.7999 19.7754 13.9895 20.1129 14.3271C20.4505 14.6647 20.6401 15.1225 20.6401 15.5999V17.3999C20.6401 17.7182 20.7666 18.0234 20.9916 18.2484C21.2167 18.4735 21.5219 18.5999 21.8401 18.5999C22.1584 18.5999 22.4636 18.4735 22.6887 18.2484C22.9137 18.0234 23.0401 17.7182 23.0401 17.3999V15.5999C23.0401 14.486 22.5976 13.4177 21.81 12.6301C21.0223 11.8424 19.954 11.3999 18.8401 11.3999C17.7262 11.3999 16.6579 11.8424 15.8703 12.6301C15.0826 13.4177 14.6401 14.486 14.6401 15.5999V16.1999C14.6401 16.5182 14.7666 16.8234 14.9916 17.0484C15.2167 17.2735 15.5219 17.3999 15.8401 17.3999C16.1584 17.3999 16.4636 17.2735 16.6887 17.0484C16.9137 16.8234 17.0401 16.5182 17.0401 16.1999V15.5999C17.0401 15.1225 17.2298 14.6647 17.5673 14.3271C17.9049 13.9895 18.3627 13.7999 18.8401 13.7999Z" fill="#EACAB9"/>
<path fill-rule="evenodd" clip-rule="evenodd" d="M13.5601 17.0997C13.0827 17.0997 12.6249 17.2893 12.2873 17.6269C11.9497 17.9645 11.7601 18.4223 11.7601 18.8997V20.6997C11.7601 21.018 11.6337 21.3232 11.4086 21.5482C11.1836 21.7733 10.8784 21.8997 10.5601 21.8997C10.2418 21.8997 9.93662 21.7733 9.71158 21.5482C9.48654 21.3232 9.36011 21.018 9.36011 20.6997V18.8997C9.36011 17.7858 9.80261 16.7175 10.5903 15.9299C11.3779 15.1422 12.4462 14.6997 13.5601 14.6997C14.674 14.6997 15.7423 15.1422 16.53 15.9299C17.3176 16.7175 17.7601 17.7858 17.7601 18.8997V20.6997C17.7601 21.018 17.6337 21.3232 17.4086 21.5482C17.1836 21.7733 16.8784 21.8997 16.5601 21.8997C16.2418 21.8997 15.9366 21.7733 15.7116 21.5482C15.4865 21.3232 15.3601 21.018 15.3601 20.6997V18.8997C15.3601 18.4223 15.1705 17.9645 14.8329 17.6269C14.4953 17.2893 14.0375 17.0997 13.5601 17.0997Z" fill="#EACAB9"/>
<path d="M17.1 12.5995C17.1 13.5543 16.7207 14.47 16.0456 15.1451C15.3705 15.8202 14.4548 16.1995 13.5 16.1995C12.5452 16.1995 11.6296 15.8202 10.9544 15.1451C10.2793 14.47 9.90002 13.5543 9.90002 12.5995C9.90002 11.6447 10.2793 10.7291 10.9544 10.0539C11.6296 9.3788 12.5452 8.99951 13.5 8.99951C14.4548 8.99951 15.3705 9.3788 16.0456 10.0539C16.7207 10.7291 17.1 11.6447 17.1 12.5995Z" fill="#EACAB9"/>
<path fill-rule="evenodd" clip-rule="evenodd" d="M13.5 13.7995C13.8183 13.7995 14.1235 13.6731 14.3486 13.448C14.5736 13.223 14.7 12.9178 14.7 12.5995C14.7 12.2813 14.5736 11.976 14.3486 11.751C14.1235 11.5259 13.8183 11.3995 13.5 11.3995C13.1818 11.3995 12.8765 11.5259 12.6515 11.751C12.4265 11.976 12.3 12.2813 12.3 12.5995C12.3 12.9178 12.4265 13.223 12.6515 13.448C12.8765 13.6731 13.1818 13.7995 13.5 13.7995ZM13.5 16.1995C14.4548 16.1995 15.3705 15.8202 16.0456 15.1451C16.7207 14.47 17.1 13.5543 17.1 12.5995C17.1 11.6447 16.7207 10.7291 16.0456 10.0539C15.3705 9.3788 14.4548 8.99951 13.5 8.99951C12.5452 8.99951 11.6296 9.3788 10.9544 10.0539C10.2793 10.7291 9.90002 11.6447 9.90002 12.5995C9.90002 13.5543 10.2793 14.47 10.9544 15.1451C11.6296 15.8202 12.5452 16.1995 13.5 16.1995Z" fill="#EACAB9"/>
<path d="M5.1001 13.7998H11.1001V18.5998H5.1001V13.7998ZM15.9001 13.7998H21.9001V18.5998H15.9001V13.7998Z" fill="#EACAB9"/>
<path d="M11.1001 16.1997H15.9001L16.5001 21.8997H10.5001L11.1001 16.1997Z" fill="#EACAB9"/>
</g>
<path fill-rule="evenodd" clip-rule="evenodd" d="M6.00002 10.7998C6.63654 10.7998 7.24699 10.5469 7.69708 10.0969C8.14717 9.64677 8.40002 9.03632 8.40002 8.3998C8.40002 7.76329 8.14717 7.15284 7.69708 6.70275C7.24699 6.25266 6.63654 5.9998 6.00002 5.9998C5.3635 5.9998 4.75306 6.25266 4.30297 6.70275C3.85288 7.15284 3.60002 7.76329 3.60002 8.3998C3.60002 9.03632 3.85288 9.64677 4.30297 10.0969C4.75306 10.5469 5.3635 10.7998 6.00002 10.7998ZM6.00002 11.9998C6.47278 11.9998 6.94091 11.9067 7.37769 11.7258C7.81446 11.5449 8.21132 11.2797 8.54561 10.9454C8.8799 10.6111 9.14507 10.2142 9.32599 9.77747C9.50691 9.34069 9.60002 8.87256 9.60002 8.3998C9.60002 7.92705 9.50691 7.45892 9.32599 7.02214C9.14507 6.58537 8.8799 6.18851 8.54561 5.85422C8.21132 5.51993 7.81446 5.25476 7.37769 5.07384C6.94091 4.89292 6.47278 4.7998 6.00002 4.7998C5.04525 4.7998 4.12957 5.17909 3.45444 5.85422C2.77931 6.52935 2.40002 7.44503 2.40002 8.3998C2.40002 9.35458 2.77931 10.2703 3.45444 10.9454C4.12957 11.6205 5.04525 11.9998 6.00002 11.9998Z" fill="#EACAB9"/>
<path fill-rule="evenodd" clip-rule="evenodd" d="M4.62485 10.6749C4.68072 10.7307 4.72506 10.7969 4.7553 10.8698C4.78555 10.9427 4.80112 11.0208 4.80112 11.0997C4.80112 11.1787 4.78555 11.2568 4.7553 11.3297C4.72506 11.4026 4.68072 11.4688 4.62485 11.5245L4.21925 11.9289C3.43869 12.7097 3.00015 13.7685 3.00005 14.8725V17.0997C3.00005 17.2589 2.93683 17.4115 2.82431 17.524C2.71179 17.6365 2.55918 17.6997 2.40005 17.6997C2.24092 17.6997 2.08831 17.6365 1.97578 17.524C1.86326 17.4115 1.80005 17.2589 1.80005 17.0997V14.8725C1.80022 13.4503 2.36523 12.0863 3.37085 11.0805L3.77525 10.6749C3.83098 10.6191 3.89719 10.5747 3.97009 10.5445C4.04298 10.5142 4.12113 10.4987 4.20005 10.4987C4.27897 10.4987 4.35712 10.5142 4.43001 10.5445C4.5029 10.5747 4.56911 10.6191 4.62485 10.6749ZM18.7752 10.3149C18.7194 10.3707 18.675 10.4369 18.6448 10.5098C18.6145 10.5827 18.599 10.6608 18.599 10.7397C18.599 10.8187 18.6145 10.8968 18.6448 10.9697C18.675 11.0426 18.7194 11.1088 18.7752 11.1645L19.1808 11.5689C19.9614 12.3497 20.3999 13.4085 20.4 14.5125V17.0997C20.4 17.2589 20.4633 17.4115 20.5758 17.524C20.6883 17.6365 20.8409 17.6997 21 17.6997C21.1592 17.6997 21.3118 17.6365 21.4243 17.524C21.5368 17.4115 21.6 17.2589 21.6 17.0997V14.5125C21.5999 13.0903 21.0349 11.7263 20.0292 10.7205L19.6248 10.3149C19.5691 10.2591 19.5029 10.2147 19.43 10.1845C19.3571 10.1542 19.279 10.1387 19.2001 10.1387C19.1211 10.1387 19.043 10.1542 18.9701 10.1845C18.8972 10.2147 18.831 10.2591 18.7752 10.3149Z" fill="#EACAB9"/>
<path fill-rule="evenodd" clip-rule="evenodd" d="M16.8001 10.7998C16.1636 10.7998 15.5531 10.5469 15.103 10.0969C14.6529 9.64677 14.4001 9.03632 14.4001 8.3998C14.4001 7.76329 14.6529 7.15284 15.103 6.70275C15.5531 6.25266 16.1636 5.9998 16.8001 5.9998C17.4366 5.9998 18.047 6.25266 18.4971 6.70275C18.9472 7.15284 19.2001 7.76329 19.2001 8.3998C19.2001 9.03632 18.9472 9.64677 18.4971 10.0969C18.047 10.5469 17.4366 10.7998 16.8001 10.7998ZM16.8001 11.9998C16.3273 11.9998 15.8592 11.9067 15.4224 11.7258C14.9856 11.5449 14.5888 11.2797 14.2545 10.9454C13.9202 10.6111 13.655 10.2142 13.4741 9.77747C13.2932 9.34069 13.2001 8.87256 13.2001 8.3998C13.2001 7.92705 13.2932 7.45892 13.4741 7.02214C13.655 6.58537 13.9202 6.18851 14.2545 5.85422C14.5888 5.51993 14.9856 5.25476 15.4224 5.07384C15.8592 4.89292 16.3273 4.7998 16.8001 4.7998C17.7549 4.7998 18.6705 5.17909 19.3457 5.85422C20.0208 6.52935 20.4001 7.44503 20.4001 8.3998C20.4001 9.35458 20.0208 10.2703 19.3457 10.9454C18.6705 11.6205 17.7549 11.9998 16.8001 11.9998ZM11.4001 15.8998C10.6044 15.8998 9.84136 16.2159 9.27875 16.7785C8.71614 17.3411 8.40007 18.1042 8.40007 18.8998V20.4598C8.40007 20.6189 8.33686 20.7715 8.22434 20.8841C8.11182 20.9966 7.9592 21.0598 7.80007 21.0598C7.64094 21.0598 7.48833 20.9966 7.37581 20.8841C7.26329 20.7715 7.20007 20.6189 7.20007 20.4598V18.8998C7.20007 17.7859 7.64257 16.7176 8.43023 15.93C9.21788 15.1423 10.2862 14.6998 11.4001 14.6998C12.514 14.6998 13.5823 15.1423 14.3699 15.93C15.1576 16.7176 15.6001 17.7859 15.6001 18.8998V20.4598C15.6001 20.6189 15.5369 20.7715 15.4243 20.8841C15.3118 20.9966 15.1592 21.0598 15.0001 21.0598C14.8409 21.0598 14.6883 20.9966 14.5758 20.8841C14.4633 20.7715 14.4001 20.6189 14.4001 20.4598V18.8998C14.4001 18.5058 14.3225 18.1157 14.1717 17.7518C14.0209 17.3878 13.8 17.0571 13.5214 16.7785C13.2428 16.4999 12.9121 16.2789 12.5481 16.1282C12.1841 15.9774 11.794 15.8998 11.4001 15.8998Z" fill="#EACAB9"/>
<path fill-rule="evenodd" clip-rule="evenodd" d="M11.4 14.0996C12.0366 14.0996 12.647 13.8468 13.0971 13.3967C13.5472 12.9466 13.8 12.3361 13.8 11.6996C13.8 11.0631 13.5472 10.4526 13.0971 10.0026C12.647 9.55247 12.0366 9.29961 11.4 9.29961C10.7635 9.29961 10.1531 9.55247 9.70299 10.0026C9.25291 10.4526 9.00005 11.0631 9.00005 11.6996C9.00005 12.3361 9.25291 12.9466 9.70299 13.3967C10.1531 13.8468 10.7635 14.0996 11.4 14.0996ZM11.4 15.2996C12.3548 15.2996 13.2705 14.9203 13.9456 14.2452C14.6208 13.5701 15 12.6544 15 11.6996C15 10.7448 14.6208 9.82916 13.9456 9.15403C13.2705 8.47889 12.3548 8.09961 11.4 8.09961C10.4453 8.09961 9.5296 8.47889 8.85446 9.15403C8.17933 9.82916 7.80005 10.7448 7.80005 11.6996C7.80005 12.6544 8.17933 13.5701 8.85446 14.2452C9.5296 14.9203 10.4453 15.2996 11.4 15.2996Z" fill="#EACAB9"/>
</svg>
