<svg width="24" height="24" viewBox="0 0 24 24" fill="none" xmlns="http://www.w3.org/2000/svg">
<rect width="24" height="24" fill="#1E1E1E"/>
<g id="Home" clip-path="url(#clip0_0_1)">
<rect width="1728" height="11298" transform="translate(-454 -4044)" fill="#FDFFF2"/>
<g id="wedding packages">
<g id="Group 3018">
<g id="Group 33">
<g id="Group 32">
<g id="Rectangle 11" filter="url(#filter0_d_0_1)">
<rect x="-327" y="-319" width="696" height="1527" rx="21" fill="white"/>
</g>
<g id="Group 15">
<g id="pepicons-print:people">
<g id="Group">
<g id="Group_2" opacity="0.2">
<path id="Vector" d="M11.7 9.29995C11.7 10.2547 11.3207 11.1704 10.6456 11.8455C9.97045 12.5207 9.05478 12.9 8.1 12.9C7.14522 12.9 6.22955 12.5207 5.55442 11.8455C4.87928 11.1704 4.5 10.2547 4.5 9.29995C4.5 8.34517 4.87928 7.4295 5.55442 6.75437C6.22955 6.07924 7.14522 5.69995 8.1 5.69995C9.05478 5.69995 9.97045 6.07924 10.6456 6.75437C11.3207 7.4295 11.7 8.34517 11.7 9.29995Z" fill="#EACAB9"/>
<path id="Vector_2" fill-rule="evenodd" clip-rule="evenodd" d="M8.1 10.5C8.41826 10.5 8.72348 10.3735 8.94853 10.1485C9.17357 9.92344 9.3 9.61821 9.3 9.29995C9.3 8.98169 9.17357 8.67647 8.94853 8.45142C8.72348 8.22638 8.41826 8.09995 8.1 8.09995C7.78174 8.09995 7.47652 8.22638 7.25147 8.45142C7.02643 8.67647 6.9 8.98169 6.9 9.29995C6.9 9.61821 7.02643 9.92344 7.25147 10.1485C7.47652 10.3735 7.78174 10.5 8.1 10.5ZM8.1 12.9C8.57276 12.9 9.04089 12.8068 9.47766 12.6259C9.91443 12.445 10.3113 12.1798 10.6456 11.8455C10.9799 11.5112 11.245 11.1144 11.426 10.6776C11.6069 10.2408 11.7 9.77271 11.7 9.29995C11.7 8.82719 11.6069 8.35906 11.426 7.92229C11.245 7.48552 10.9799 7.08866 10.6456 6.75437C10.3113 6.42008 9.91443 6.1549 9.47766 5.97399C9.04089 5.79307 8.57276 5.69995 8.1 5.69995C7.14522 5.69995 6.22955 6.07924 5.55442 6.75437C4.87928 7.4295 4.5 8.34517 4.5 9.29995C4.5 10.2547 4.87928 11.1704 5.55442 11.8455C6.22955 12.5207 7.14522 12.9 8.1 12.9Z" fill="#EACAB9"/>
<path id="Vector_3" fill-rule="evenodd" clip-rule="evenodd" d="M8.15996 13.7999C7.68257 13.7999 7.22473 13.9895 6.88717 14.3271C6.5496 14.6647 6.35996 15.1225 6.35996 15.5999V17.3999C6.35996 17.7182 6.23353 18.0234 6.00849 18.2484C5.78345 18.4735 5.47822 18.5999 5.15996 18.5999C4.8417 18.5999 4.53648 18.4735 4.31143 18.2484C4.08639 18.0234 3.95996 17.7182 3.95996 17.3999V15.5999C3.95996 14.486 4.40246 13.4177 5.19011 12.6301C5.97777 11.8424 7.04605 11.3999 8.15996 11.3999C9.27387 11.3999 10.3422 11.8424 11.1298 12.6301C11.9175 13.4177 12.36 14.486 12.36 15.5999V16.1999C12.36 16.5182 12.2335 16.8234 12.0085 17.0484C11.7834 17.2735 11.4782 17.3999 11.16 17.3999C10.8417 17.3999 10.5365 17.2735 10.3114 17.0484C10.0864 16.8234 9.95996 16.5182 9.95996 16.1999V15.5999C9.95996 15.1225 9.77032 14.6647 9.43275 14.3271C9.09519 13.9895 8.63735 13.7999 8.15996 13.7999Z" fill="#EACAB9"/>
<path id="Vector_4" d="M15.3 9.29995C15.3 10.2547 15.6793 11.1704 16.3545 11.8455C17.0296 12.5207 17.9453 12.9 18.9 12.9C19.8548 12.9 20.7705 12.5207 21.4456 11.8455C22.1208 11.1704 22.5 10.2547 22.5 9.29995C22.5 8.34517 22.1208 7.4295 21.4456 6.75437C20.7705 6.07924 19.8548 5.69995 18.9 5.69995C17.9453 5.69995 17.0296 6.07924 16.3545 6.75437C15.6793 7.4295 15.3 8.34517 15.3 9.29995Z" fill="#EACAB9"/>
<path id="Vector_5" fill-rule="evenodd" clip-rule="evenodd" d="M18.9 10.5C18.5818 10.5 18.2766 10.3735 18.0515 10.1485C17.8265 9.92344 17.7 9.61821 17.7 9.29995C17.7 8.98169 17.8265 8.67647 18.0515 8.45142C18.2766 8.22638 18.5818 8.09995 18.9 8.09995C19.2183 8.09995 19.5235 8.22638 19.7486 8.45142C19.9736 8.67647 20.1 8.98169 20.1 9.29995C20.1 9.61821 19.9736 9.92344 19.7486 10.1485C19.5235 10.3735 19.2183 10.5 18.9 10.5ZM18.9 12.9C18.4273 12.9 17.9592 12.8068 17.5224 12.6259C17.0856 12.445 16.6888 12.1798 16.3545 11.8455C16.0202 11.5112 15.755 11.1144 15.5741 10.6776C15.3932 10.2408 15.3 9.77271 15.3 9.29995C15.3 8.82719 15.3932 8.35906 15.5741 7.92229C15.755 7.48552 16.0202 7.08866 16.3545 6.75437C16.6888 6.42008 17.0856 6.1549 17.5224 5.97399C17.9592 5.79307 18.4273 5.69995 18.9 5.69995C19.8548 5.69995 20.7705 6.07924 21.4456 6.75437C22.1208 7.4295 22.5 8.34517 22.5 9.29995C22.5 10.2547 22.1208 11.1704 21.4456 11.8455C20.7705 12.5207 19.8548 12.9 18.9 12.9Z" fill="#EACAB9"/>
<path id="Vector_6" fill-rule="evenodd" clip-rule="evenodd" d="M18.8399 13.7999C19.3173 13.7999 19.7751 13.9895 20.1127 14.3271C20.4503 14.6647 20.6399 15.1225 20.6399 15.5999V17.3999C20.6399 17.7182 20.7663 18.0234 20.9914 18.2484C21.2164 18.4735 21.5216 18.5999 21.8399 18.5999C22.1582 18.5999 22.4634 18.4735 22.6884 18.2484C22.9135 18.0234 23.0399 17.7182 23.0399 17.3999V15.5999C23.0399 14.486 22.5974 13.4177 21.8097 12.6301C21.0221 11.8424 19.9538 11.3999 18.8399 11.3999C17.726 11.3999 16.6577 11.8424 15.87 12.6301C15.0824 13.4177 14.6399 14.486 14.6399 15.5999V16.1999C14.6399 16.5182 14.7663 16.8234 14.9914 17.0484C15.2164 17.2735 15.5216 17.3999 15.8399 17.3999C16.1582 17.3999 16.4634 17.2735 16.6884 17.0484C16.9135 16.8234 17.0399 16.5182 17.0399 16.1999V15.5999C17.0399 15.1225 17.2295 14.6647 17.5671 14.3271C17.9047 13.9895 18.3625 13.7999 18.8399 13.7999Z" fill="#EACAB9"/>
<path id="Vector_7" fill-rule="evenodd" clip-rule="evenodd" d="M13.5599 17.1C13.0825 17.1 12.6246 17.2896 12.2871 17.6272C11.9495 17.9647 11.7599 18.4226 11.7599 18.9V20.7C11.7599 21.0182 11.6334 21.3234 11.4084 21.5485C11.1833 21.7735 10.8781 21.9 10.5599 21.9C10.2416 21.9 9.93638 21.7735 9.71134 21.5485C9.48629 21.3234 9.35986 21.0182 9.35986 20.7V18.9C9.35986 17.786 9.80236 16.7178 10.59 15.9301C11.3777 15.1425 12.446 14.7 13.5599 14.7C14.6738 14.7 15.7421 15.1425 16.5297 15.9301C17.3174 16.7178 17.7599 17.786 17.7599 18.9V20.7C17.7599 21.0182 17.6334 21.3234 17.4084 21.5485C17.1833 21.7735 16.8781 21.9 16.5599 21.9C16.2416 21.9 15.9364 21.7735 15.7113 21.5485C15.4863 21.3234 15.3599 21.0182 15.3599 20.7V18.9C15.3599 18.4226 15.1702 17.9647 14.8327 17.6272C14.4951 17.2896 14.0373 17.1 13.5599 17.1Z" fill="#EACAB9"/>
<path id="Vector_8" d="M17.0999 12.6C17.0999 13.5548 16.7206 14.4705 16.0455 15.1456C15.3704 15.8207 14.4547 16.2 13.4999 16.2C12.5451 16.2 11.6294 15.8207 10.9543 15.1456C10.2792 14.4705 9.8999 13.5548 9.8999 12.6C9.8999 11.6452 10.2792 10.7295 10.9543 10.0544C11.6294 9.37928 12.5451 9 13.4999 9C14.4547 9 15.3704 9.37928 16.0455 10.0544C16.7206 10.7295 17.0999 11.6452 17.0999 12.6Z" fill="#EACAB9"/>
<path id="Vector_9" fill-rule="evenodd" clip-rule="evenodd" d="M13.4999 13.8C13.8182 13.8 14.1234 13.6736 14.3484 13.4485C14.5735 13.2235 14.6999 12.9183 14.6999 12.6C14.6999 12.2817 14.5735 11.9765 14.3484 11.7515C14.1234 11.5264 13.8182 11.4 13.4999 11.4C13.1816 11.4 12.8764 11.5264 12.6514 11.7515C12.4263 11.9765 12.2999 12.2817 12.2999 12.6C12.2999 12.9183 12.4263 13.2235 12.6514 13.4485C12.8764 13.6736 13.1816 13.8 13.4999 13.8ZM13.4999 16.2C14.4547 16.2 15.3704 15.8207 16.0455 15.1456C16.7206 14.4705 17.0999 13.5548 17.0999 12.6C17.0999 11.6452 16.7206 10.7295 16.0455 10.0544C15.3704 9.37928 14.4547 9 13.4999 9C12.5451 9 11.6294 9.37928 10.9543 10.0544C10.2792 10.7295 9.8999 11.6452 9.8999 12.6C9.8999 13.5548 10.2792 14.4705 10.9543 15.1456C11.6294 15.8207 12.5451 16.2 13.4999 16.2Z" fill="#EACAB9"/>
<path id="Vector_10" d="M5.09985 13.8H11.0999V18.6H5.09985V13.8ZM15.8999 13.8H21.8999V18.6H15.8999V13.8Z" fill="#EACAB9"/>
<path id="Vector_11" d="M11.1 16.2H15.9L16.5 21.9H10.5L11.1 16.2Z" fill="#EACAB9"/>
</g>
<path id="Vector_12" fill-rule="evenodd" clip-rule="evenodd" d="M6.00015 10.8C6.63667 10.8 7.24712 10.5472 7.6972 10.0971C8.14729 9.64702 8.40015 9.03657 8.40015 8.40005C8.40015 7.76353 8.14729 7.15308 7.6972 6.70299C7.24712 6.25291 6.63667 6.00005 6.00015 6.00005C5.36363 6.00005 4.75318 6.25291 4.30309 6.70299C3.853 7.15308 3.60015 7.76353 3.60015 8.40005C3.60015 9.03657 3.853 9.64702 4.30309 10.0971C4.75318 10.5472 5.36363 10.8 6.00015 10.8ZM6.00015 12C6.47291 12 6.94103 11.9069 7.37781 11.726C7.81458 11.5451 8.21144 11.2799 8.54573 10.9456C8.88002 10.6113 9.1452 10.2145 9.32611 9.77771C9.50703 9.34094 9.60015 8.87281 9.60015 8.40005C9.60015 7.92729 9.50703 7.45916 9.32611 7.02239C9.1452 6.58562 8.88002 6.18876 8.54573 5.85446C8.21144 5.52017 7.81458 5.255 7.37781 5.07408C6.94103 4.89317 6.47291 4.80005 6.00015 4.80005C5.04537 4.80005 4.12969 5.17933 3.45456 5.85446C2.77943 6.5296 2.40015 7.44527 2.40015 8.40005C2.40015 9.35483 2.77943 10.2705 3.45456 10.9456C4.12969 11.6208 5.04537 12 6.00015 12Z" fill="#EACAB9"/>
<path id="Vector_13" fill-rule="evenodd" clip-rule="evenodd" d="M4.62485 10.6752C4.68072 10.7309 4.72506 10.7971 4.7553 10.87C4.78555 10.9429 4.80112 11.0211 4.80112 11.1C4.80112 11.1789 4.78555 11.2571 4.7553 11.3299C4.72506 11.4028 4.68072 11.4691 4.62485 11.5248L4.21925 11.9292C3.43869 12.71 3.00015 13.7688 3.00005 14.8728V17.1C3.00005 17.2591 2.93683 17.4117 2.82431 17.5243C2.71179 17.6368 2.55918 17.7 2.40005 17.7C2.24092 17.7 2.08831 17.6368 1.97578 17.5243C1.86326 17.4117 1.80005 17.2591 1.80005 17.1V14.8728C1.80022 13.4505 2.36523 12.0866 3.37085 11.0808L3.77525 10.6752C3.83098 10.6193 3.89719 10.575 3.97009 10.5447C4.04298 10.5145 4.12113 10.4989 4.20005 10.4989C4.27897 10.4989 4.35712 10.5145 4.43001 10.5447C4.5029 10.575 4.56911 10.6193 4.62485 10.6752ZM18.7752 10.3152C18.7194 10.3709 18.675 10.4371 18.6448 10.51C18.6145 10.5829 18.599 10.6611 18.599 10.74C18.599 10.8189 18.6145 10.8971 18.6448 10.9699C18.675 11.0428 18.7194 11.1091 18.7752 11.1648L19.1808 11.5692C19.9614 12.35 20.3999 13.4088 20.4 14.5128V17.1C20.4 17.2591 20.4633 17.4117 20.5758 17.5243C20.6883 17.6368 20.8409 17.7 21 17.7C21.1592 17.7 21.3118 17.6368 21.4243 17.5243C21.5368 17.4117 21.6 17.2591 21.6 17.1V14.5128C21.5999 13.0905 21.0349 11.7266 20.0292 10.7208L19.6248 10.3152C19.5691 10.2593 19.5029 10.215 19.43 10.1847C19.3571 10.1545 19.279 10.1389 19.2001 10.1389C19.1211 10.1389 19.043 10.1545 18.9701 10.1847C18.8972 10.215 18.831 10.2593 18.7752 10.3152Z" fill="#EACAB9"/>
<path id="Vector_14" fill-rule="evenodd" clip-rule="evenodd" d="M16.8 10.8C16.1634 10.8 15.553 10.5472 15.1029 10.0971C14.6528 9.64702 14.4 9.03657 14.4 8.40005C14.4 7.76353 14.6528 7.15308 15.1029 6.70299C15.553 6.25291 16.1634 6.00005 16.8 6.00005C17.4365 6.00005 18.0469 6.25291 18.497 6.70299C18.9471 7.15308 19.2 7.76353 19.2 8.40005C19.2 9.03657 18.9471 9.64702 18.497 10.0971C18.0469 10.5472 17.4365 10.8 16.8 10.8ZM16.8 12C16.3272 12 15.8591 11.9069 15.4223 11.726C14.9855 11.5451 14.5887 11.2799 14.2544 10.9456C13.9201 10.6113 13.6549 10.2145 13.474 9.77771C13.2931 9.34094 13.2 8.87281 13.2 8.40005C13.2 7.92729 13.2931 7.45916 13.474 7.02239C13.6549 6.58562 13.9201 6.18876 14.2544 5.85446C14.5887 5.52017 14.9855 5.255 15.4223 5.07408C15.8591 4.89317 16.3272 4.80005 16.8 4.80005C17.7547 4.80005 18.6704 5.17933 19.3455 5.85446C20.0207 6.5296 20.4 7.44527 20.4 8.40005C20.4 9.35483 20.0207 10.2705 19.3455 10.9456C18.6704 11.6208 17.7547 12 16.8 12ZM11.4 15.9C10.6043 15.9 9.84124 16.2161 9.27863 16.7787C8.71602 17.3413 8.39995 18.1044 8.39995 18.9V20.46C8.39995 20.6192 8.33674 20.7718 8.22422 20.8843C8.11169 20.9968 7.95908 21.06 7.79995 21.06C7.64082 21.06 7.48821 20.9968 7.37569 20.8843C7.26317 20.7718 7.19995 20.6192 7.19995 20.46V18.9C7.19995 17.7861 7.64245 16.7179 8.4301 15.9302C9.21776 15.1425 10.286 14.7 11.4 14.7C12.5139 14.7 13.5821 15.1425 14.3698 15.9302C15.1575 16.7179 15.6 17.7861 15.6 18.9V20.46C15.6 20.6192 15.5367 20.7718 15.4242 20.8843C15.3117 20.9968 15.1591 21.06 15 21.06C14.8408 21.06 14.6882 20.9968 14.5757 20.8843C14.4632 20.7718 14.4 20.6192 14.4 20.46V18.9C14.4 18.5061 14.3224 18.116 14.1716 17.752C14.0208 17.388 13.7998 17.0573 13.5213 16.7787C13.2427 16.5002 12.912 16.2792 12.548 16.1284C12.184 15.9776 11.7939 15.9 11.4 15.9Z" fill="#EACAB9"/>
<path id="Vector_15" fill-rule="evenodd" clip-rule="evenodd" d="M11.4 14.1001C12.0366 14.1001 12.647 13.8472 13.0971 13.3972C13.5472 12.9471 13.8 12.3366 13.8 11.7001C13.8 11.0636 13.5472 10.4531 13.0971 10.003C12.647 9.55295 12.0366 9.3001 11.4 9.3001C10.7635 9.3001 10.1531 9.55295 9.70299 10.003C9.25291 10.4531 9.00005 11.0636 9.00005 11.7001C9.00005 12.3366 9.25291 12.9471 9.70299 13.3972C10.1531 13.8472 10.7635 14.1001 11.4 14.1001ZM11.4 15.3001C12.3548 15.3001 13.2705 14.9208 13.9456 14.2457C14.6208 13.5706 15 12.6549 15 11.7001C15 10.7453 14.6208 9.82964 13.9456 9.15451C13.2705 8.47938 12.3548 8.1001 11.4 8.1001C10.4453 8.1001 9.5296 8.47938 8.85446 9.15451C8.17933 9.82964 7.80005 10.7453 7.80005 11.7001C7.80005 12.6549 8.17933 13.5706 8.85446 14.2457C9.5296 14.9208 10.4453 15.3001 11.4 15.3001Z" fill="#EACAB9"/>
</g>
</g>
</g>
</g>
</g>
</g>
</g>
</g>
<defs>
<filter id="filter0_d_0_1" x="-358.8" y="-346.8" width="759.6" height="1590.6" filterUnits="userSpaceOnUse" color-interpolation-filters="sRGB">
<feFlood flood-opacity="0" result="BackgroundImageFix"/>
<feColorMatrix in="SourceAlpha" type="matrix" values="0 0 0 0 0 0 0 0 0 0 0 0 0 0 0 0 0 0 127 0" result="hardAlpha"/>
<feOffset dy="4"/>
<feGaussianBlur stdDeviation="15.9"/>
<feComposite in2="hardAlpha" operator="out"/>
<feColorMatrix type="matrix" values="0 0 0 0 0 0 0 0 0 0 0 0 0 0 0 0 0 0 0.18 0"/>
<feBlend mode="normal" in2="BackgroundImageFix" result="effect1_dropShadow_0_1"/>
<feBlend mode="normal" in="SourceGraphic" in2="effect1_dropShadow_0_1" result="shape"/>
</filter>
<clipPath id="clip0_0_1">
<rect width="1728" height="11298" fill="white" transform="translate(-454 -4044)"/>
</clipPath>
</defs>
</svg>
