<svg width="166" height="166" viewBox="0 0 166 166" fill="none" xmlns="http://www.w3.org/2000/svg">
<circle cx="83" cy="83" r="83" fill="#A42D2B"/>
<g clip-path="url(#clip0_125_839)">
<path d="M119.041 69.4787L116.671 69.5759C111.35 69.8054 108.021 68.9483 105.473 68.0139C102.927 67.0778 101.23 65.8528 98.6992 65.5046C96.0001 65.1348 91.5308 65.1392 86.5677 68.192C84.1313 66.6118 81.8975 65.9013 79.7386 65.7341C77.6056 65.5687 75.6171 65.8229 73.3291 65.9756C73.3067 65.9807 73.2944 66.0203 73.2754 66.0288C69.9996 66.2406 66.7791 66.7784 63.2052 65.172L61.7002 64.5185L43.1921 82.8496L75.8903 115.864C77.8673 117.655 80.4785 117.669 82.5629 117.187C84.6438 116.704 86.4806 115.759 87.8518 114.844C91.3515 112.516 100.825 105.209 100.825 105.209L101.041 105.105L101.204 104.944C102.32 103.729 102.837 102.263 103.163 100.749L110.882 96.9635L118.594 95.439L120.697 95.0716L120.597 92.9166L119.192 71.7959L119.041 69.4787ZM114.386 74.3048L115.488 91.1151L109.614 92.2158L109.29 92.2177L108.965 92.4299L102.757 95.4698C102.284 94.3161 101.686 93.2377 100.725 92.3369L100.617 92.2277L89.7363 81.3496L88.021 79.6178L81.3101 86.2644C79.1823 87.8916 77.412 87.566 75.5974 86.7765C74.9937 86.5168 75.0358 86.3687 74.5787 86.0701L84.6424 76.1026C90.781 69.4601 94.893 69.9159 98.0296 70.3498C98.8977 70.4677 100.768 71.4799 103.781 72.5854C106.301 73.5058 109.881 74.2073 114.386 74.3048ZM82.3504 71.7275C81.9504 72.1099 81.5515 72.2614 81.1599 72.6904L67.3052 86.4126L69.0205 88.1444C69.0205 88.1444 70.8766 89.9769 73.6389 91.1829C76.4012 92.3889 80.6317 92.9539 84.3077 90.1569L87.9879 86.512L97.2612 95.7674L97.3143 95.8211C98.1101 96.5394 98.5882 97.5441 98.6439 98.6147C98.6995 99.6853 98.328 100.734 97.6109 101.531C97.5764 101.552 96.8549 102.108 96.6924 102.228L89.67 95.138L86.2064 98.5686L92.7999 105.226C91.2793 106.368 90.273 107.032 88.7993 108.114L82.7427 101.999L79.279 105.43L84.8005 111.004C83.76 111.63 82.6319 112.096 81.4535 112.388C80.2146 112.678 79.5206 112.56 79.1396 112.216L50.0863 82.8827L63.0213 70.0713C67.2912 71.4035 71.1624 71.0274 73.5727 70.877C76.0727 70.7201 77.8834 70.5185 79.3376 70.6358C80.2869 70.7144 81.3356 71.271 82.3504 71.7275Z" fill="white"/>
</g>
<defs>
<clipPath id="clip0_125_839">
<rect width="78" height="78" fill="white" transform="translate(44 44)"/>
</clipPath>
</defs>
</svg>
