<svg width="166" height="166" viewBox="0 0 166 166" fill="none" xmlns="http://www.w3.org/2000/svg">
<circle cx="83" cy="83" r="83" fill="#A42D2B"/>
<path d="M68.375 65.9375H112.25M68.375 83H112.25M68.375 100.062H112.25" stroke="white" stroke-width="7.3125" stroke-linecap="round" stroke-linejoin="round"/>
<path d="M56.1875 68.375C57.5337 68.375 58.625 67.2837 58.625 65.9375C58.625 64.5913 57.5337 63.5 56.1875 63.5C54.8413 63.5 53.75 64.5913 53.75 65.9375C53.75 67.2837 54.8413 68.375 56.1875 68.375Z" stroke="white" stroke-width="4.875" stroke-linecap="round" stroke-linejoin="round"/>
<path d="M56.1875 85.4375C57.5337 85.4375 58.625 84.3462 58.625 83C58.625 81.6538 57.5337 80.5625 56.1875 80.5625C54.8413 80.5625 53.75 81.6538 53.75 83C53.75 84.3462 54.8413 85.4375 56.1875 85.4375Z" stroke="white" stroke-width="4.875" stroke-linecap="round" stroke-linejoin="round"/>
<path d="M56.1875 102.5C57.5337 102.5 58.625 101.409 58.625 100.062C58.625 98.7163 57.5337 97.625 56.1875 97.625C54.8413 97.625 53.75 98.7163 53.75 100.062C53.75 101.409 54.8413 102.5 56.1875 102.5Z" stroke="white" stroke-width="4.875" stroke-linecap="round" stroke-linejoin="round"/>
</svg>
