<svg width="32" height="32" viewBox="0 0 32 32" fill="none" xmlns="http://www.w3.org/2000/svg">
<path d="M14.73 4.596C14.21 3.55667 13.1233 2.716 11.7886 2.86467C10.5946 2.99734 8.82196 3.44134 7.61329 4.89734C6.37263 6.39267 5.90996 8.72467 6.86263 12.2187C7.87996 15.946 9.39063 19.6207 11.2686 22.5853C13.1326 25.5287 15.4286 27.8847 18.0626 28.788C20.392 29.5867 22.1733 29.2533 23.4726 28.376C24.726 27.53 25.414 26.2573 25.77 25.376C26.1686 24.3893 25.906 23.362 25.386 22.6047L23.468 19.8153C23.0443 19.199 22.4342 18.7346 21.7274 18.4902C21.0205 18.2458 20.2539 18.2343 19.54 18.4573L16.8893 19.286C16.8056 19.3145 16.7153 19.3179 16.6296 19.2958C16.544 19.2736 16.4667 19.2269 16.4073 19.1613C15.2273 17.7793 13.9053 15.852 13.546 13.9013C13.5345 13.8492 13.5423 13.7948 13.568 13.748C13.958 13.0927 14.6293 12.35 15.2966 11.7C16.428 10.5987 16.8566 8.848 16.11 7.356L14.73 4.596Z" fill="black"/>
</svg>
