<svg width="32" height="32" viewBox="0 0 32 32" fill="none" xmlns="http://www.w3.org/2000/svg">
<path d="M21.0001 16C19.7151 16 18.4726 15.4263 17.5001 14.385C16.5544 13.3694 15.9769 12.015 15.8751 10.5725C15.7663 9.03375 16.2357 7.61875 17.1963 6.5875C18.1569 5.55625 19.5001 5 21.0001 5C22.4894 5 23.8363 5.56625 24.7938 6.595C25.7607 7.63375 26.2313 9.04625 26.1226 10.5719C26.0182 12.0162 25.4413 13.37 24.4976 14.3844C23.5276 15.4262 22.2857 16 21.0001 16ZM29.2394 27H12.7613C12.4964 27.0014 12.2346 26.942 11.9963 26.8264C11.7579 26.7108 11.5492 26.542 11.3863 26.3331C11.2135 26.1066 11.0942 25.844 11.0372 25.5649C10.9803 25.2857 10.9872 24.9973 11.0576 24.7213C11.5838 22.6081 12.8876 20.8556 14.8276 19.6537C16.5494 18.5875 18.7413 18 21.0001 18C23.3032 18 25.4376 18.5625 27.1694 19.6281C29.1138 20.8237 30.4194 22.5863 30.9432 24.725C31.0126 25.0013 31.0188 25.2897 30.9612 25.5687C30.9037 25.8477 30.7838 26.11 30.6107 26.3363C30.4479 26.5442 30.2397 26.7121 30.002 26.8272C29.7644 26.9422 29.5035 27.0014 29.2394 27ZM9.18755 16.25C6.98818 16.25 5.05443 14.205 4.87505 11.6919C4.7863 10.4044 5.18755 9.21375 6.00005 8.34062C6.8038 7.47625 7.93755 7 9.18755 7C10.4376 7 11.5625 7.47875 12.3707 8.34813C13.1894 9.22813 13.5894 10.4162 13.4957 11.6931C13.3163 14.2056 11.3832 16.25 9.18755 16.25ZM13.2913 18.2156C12.1919 17.6781 10.765 17.4094 9.18818 17.4094C7.34693 17.4094 5.5588 17.8894 4.15255 18.7606C2.55818 19.75 1.48568 21.1906 1.05255 22.93C0.989167 23.1802 0.983172 23.4415 1.03501 23.6943C1.08686 23.9471 1.1952 24.1849 1.35193 24.39C1.50064 24.5809 1.69117 24.7352 1.90884 24.8409C2.12652 24.9467 2.36555 25.0011 2.60755 25H9.54505C9.66214 25 9.77552 24.9589 9.86541 24.8838C9.95529 24.8088 10.016 24.7046 10.0369 24.5894C10.0438 24.55 10.0526 24.5106 10.0626 24.4719C10.5926 22.3431 11.8344 20.5444 13.6694 19.2331C13.7369 19.1845 13.7912 19.1198 13.8274 19.0448C13.8635 18.9699 13.8804 18.8871 13.8765 18.804C13.8726 18.7209 13.848 18.6401 13.805 18.5689C13.7619 18.4977 13.7018 18.4383 13.6301 18.3962C13.5319 18.3387 13.4194 18.2781 13.2913 18.2156Z" fill="black"/>
</svg>
