<svg width="32" height="32" viewBox="0 0 32 32" fill="none" xmlns="http://www.w3.org/2000/svg">
<path d="M16 2.66666C19.1826 2.66666 22.2348 3.93094 24.4853 6.18138C26.7357 8.43181 28 11.4841 28 14.6667C28 18.7653 25.7653 22.12 23.4107 24.5267C22.2342 25.7161 20.9506 26.7944 19.576 27.748L19.008 28.1347L18.7413 28.312L18.2387 28.632L17.7907 28.9053L17.236 29.228C16.8595 29.4429 16.4335 29.5559 16 29.5559C15.5665 29.5559 15.1405 29.4429 14.764 29.228L14.2093 28.9053L13.516 28.4787L13.26 28.312L12.7133 27.948C11.2304 26.9447 9.8492 25.7988 8.58933 24.5267C6.23467 22.1187 4 18.7653 4 14.6667C4 11.4841 5.26428 8.43181 7.51472 6.18138C9.76515 3.93094 12.8174 2.66666 16 2.66666ZM16 10.6667C15.4747 10.6667 14.9546 10.7701 14.4693 10.9711C13.984 11.1722 13.543 11.4668 13.1716 11.8382C12.8001 12.2097 12.5055 12.6506 12.3045 13.1359C12.1035 13.6212 12 14.1414 12 14.6667C12 15.1919 12.1035 15.7121 12.3045 16.1974C12.5055 16.6827 12.8001 17.1237 13.1716 17.4951C13.543 17.8665 13.984 18.1612 14.4693 18.3622C14.9546 18.5632 15.4747 18.6667 16 18.6667C17.0609 18.6667 18.0783 18.2452 18.8284 17.4951C19.5786 16.7449 20 15.7275 20 14.6667C20 13.6058 19.5786 12.5884 18.8284 11.8382C18.0783 11.0881 17.0609 10.6667 16 10.6667Z" fill="black"/>
</svg>
