<svg width="93" height="92" viewBox="0 0 93 92" fill="none" xmlns="http://www.w3.org/2000/svg">
<circle cx="46.5" cy="46" r="46" fill="#A42D2B"/>
<g clip-path="url(#clip0_154_468)">
<path fill-rule="evenodd" clip-rule="evenodd" d="M54.337 55.6121C54.3281 55.5994 54.3499 55.6299 54.337 55.6121C54.3038 55.5668 54.2698 55.522 54.2349 55.4779C54.1223 55.3362 54.0036 55.1994 53.8792 55.0679C53.5732 54.7433 53.1231 54.3269 52.5155 53.9151C51.2883 53.0837 49.4471 52.2925 46.9341 52.2925C44.421 52.2925 42.5798 53.0837 41.3527 53.9151C40.745 54.3269 40.2949 54.7433 39.989 55.0679C39.8646 55.1994 39.7459 55.3362 39.6332 55.4779C39.591 55.5314 39.6592 55.4424 39.6332 55.4779L39.4773 55.6885C39.2701 55.995 39.1776 56.3648 39.216 56.7327C39.2544 57.1007 39.4212 57.4433 39.6872 57.7004L45.8407 63.6488C46.4504 64.2382 47.4176 64.2382 48.0274 63.6488L54.1809 57.7004C54.4469 57.4433 54.6138 57.1007 54.6522 56.7327C54.6906 56.3648 54.5981 55.9951 54.3909 55.6885L54.337 55.6121Z" fill="white"/>
<path fill-rule="evenodd" clip-rule="evenodd" d="M63.165 47.3628C63.1517 47.3414 63.1064 47.2678 63.0851 47.235C63.0277 47.1472 62.9684 47.0607 62.9072 46.9755C62.7546 46.7629 62.5323 46.4745 62.2326 46.1363C61.6329 45.4598 60.7222 44.5826 59.4386 43.714C56.8557 41.9657 52.8297 40.2974 46.9338 40.2974C41.0378 40.2974 37.0119 41.9657 34.4289 43.714C33.1453 44.5826 32.2346 45.4598 31.635 46.1363C31.3352 46.4745 31.1129 46.7629 30.9604 46.9755C30.8991 47.0607 30.8398 47.1472 30.7824 47.235C30.7612 47.2679 30.7439 47.2951 30.7306 47.3165L30.7026 47.3628C30.5225 47.6677 30.4505 48.0244 30.4983 48.3752C30.5461 48.7261 30.7108 49.0506 30.9659 49.2962L34.4375 52.639C34.5897 52.7856 34.7698 52.8999 34.9672 52.9753C35.1645 53.0507 35.375 53.0856 35.5861 53.0779C35.7972 53.0702 36.0046 53.0201 36.1959 52.9305C36.3872 52.8409 36.5585 52.7137 36.6996 52.5564L36.7188 52.5359C36.7391 52.5144 36.7743 52.4778 36.8244 52.4281C36.9775 52.2772 37.1359 52.1317 37.2993 51.992C37.7321 51.6198 38.39 51.1123 39.2613 50.6016C41.001 49.5823 43.5804 48.5562 46.9338 48.5562C50.2872 48.5562 52.8666 49.5823 54.6062 50.6016C55.4775 51.1123 56.1354 51.6198 56.5682 51.992C56.7316 52.1317 56.89 52.2772 57.0432 52.4281C57.0856 52.4701 57.1272 52.5129 57.168 52.5564L57.1675 52.5558L57.1662 52.5544M57.1662 52.5544L57.1687 52.5572C57.3099 52.7143 57.4812 52.8413 57.6724 52.9308C57.8637 53.0202 58.071 53.0703 58.282 53.0779C58.493 53.0855 58.7034 53.0506 58.9006 52.9752C59.0979 52.8998 59.2779 52.7855 59.43 52.639L62.9017 49.2962C63.1567 49.0506 63.3215 48.7261 63.3693 48.3752C63.417 48.0244 63.3451 47.6677 63.165 47.3628" fill="#EACAB9"/>
<path d="M71.708 38.652C71.7417 38.6971 71.8241 38.8121 71.8241 38.8121C72.0364 39.1187 72.1328 39.4907 72.0963 39.8617C72.0598 40.2328 71.8926 40.5788 71.6246 40.8381L68.0173 44.3285C67.8624 44.4783 67.6785 44.5947 67.4767 44.6705C67.275 44.7463 67.0599 44.7798 66.8447 44.769C66.6295 44.7582 66.4188 44.7034 66.2257 44.6078C66.0326 44.5122 65.8611 44.378 65.722 44.2134L65.7217 44.2131L65.7134 44.2034C65.7043 44.1929 65.6885 44.1749 65.666 44.1495C65.5952 44.0705 65.5231 43.9925 65.45 43.9156C65.2525 43.7076 64.949 43.4015 64.5426 43.0297C63.729 42.2856 62.5084 41.2832 60.9051 40.2787C57.6999 38.2705 52.9886 36.2663 46.934 36.2663C40.8795 36.2663 36.1681 38.2705 32.963 40.2787C31.3597 41.2832 30.1391 42.2856 29.3255 43.0297C28.9191 43.4015 28.6156 43.7076 28.4181 43.9156C28.3449 43.9925 28.2729 44.0705 28.2021 44.1495C28.1795 44.1749 28.1637 44.1929 28.1547 44.2034L28.1501 44.2087L28.1471 44.212L28.1467 44.2126L28.1464 44.2131L28.146 44.2135C28.0068 44.3781 27.8354 44.5123 27.6423 44.6078C27.4492 44.7034 27.2385 44.7583 27.0233 44.769C26.8081 44.7798 26.593 44.7463 26.3913 44.6705C26.1896 44.5947 26.0056 44.4783 25.8508 44.3285L22.2434 40.8381C21.9755 40.5788 21.8083 40.2328 21.7717 39.8618C21.7352 39.4907 21.8316 39.1187 22.0439 38.8121L22.0449 38.8106L22.0462 38.8089L22.0492 38.8047L22.0569 38.7936L22.0805 38.7604C22.0999 38.7333 22.1264 38.6972 22.1601 38.652C22.2275 38.5615 22.324 38.4358 22.45 38.2797C22.702 37.9677 23.0729 37.534 23.5676 37.0195C24.5564 35.991 26.0438 34.6361 28.069 33.286C32.1308 30.5782 38.3291 27.9092 46.934 27.9092C55.539 27.9092 61.7373 30.5782 65.7991 33.286C67.8243 34.6361 69.3117 35.991 70.3005 37.0195C70.7952 37.534 71.1661 37.9677 71.4181 38.2797C71.5171 38.4019 71.6138 38.526 71.708 38.652Z" fill="#EACAB9"/>
</g>
<defs>
<clipPath id="clip0_154_468">
<rect width="50.3396" height="50.3396" fill="white" transform="translate(21.7642 20.8301)"/>
</clipPath>
</defs>
</svg>
