<svg width="92" height="92" viewBox="0 0 92 92" fill="none" xmlns="http://www.w3.org/2000/svg">
<circle cx="46" cy="46" r="46" fill="#A42D2B"/>
<g clip-path="url(#clip0_154_455)">
<path d="M28.9335 41.3867C30.4142 40.7359 32.1171 41.5155 32.7188 43.1191L36.1678 51.5058H37.2759V28.6956C37.2759 26.9652 38.5835 25.5494 40.1812 25.5494C41.7799 25.5494 43.0866 26.9652 43.0866 28.6956V43.6156L44.5397 43.6402V23.9763C44.5397 22.2459 45.8474 20.8301 47.4451 20.8301C49.0477 20.8301 50.3504 22.2459 50.3504 23.9763V43.6156L51.8006 43.6402V27.1225C51.8006 25.3921 53.1083 23.9763 54.706 23.9763C56.3047 23.9763 57.6113 25.3921 57.6113 27.1225V45.1888L59.0645 45.2133V33.415C59.0645 31.6846 60.3721 30.2688 61.9698 30.2688C63.5695 30.2688 64.8771 31.6846 64.8771 33.415V54.652C64.8771 62.1046 61.2265 71.1697 48.2611 71.1697C44.2497 71.1697 40.4526 70.4815 38.3643 69.105C37.0547 68.2417 35.9281 67.1289 35.0489 65.83C34.3919 64.8607 33.8632 63.8104 33.4758 62.7054L27.3348 45.4857C26.7341 43.8821 27.4528 42.0386 28.9335 41.3867Z" fill="white"/>
</g>
<defs>
<clipPath id="clip0_154_455">
<rect width="50.3396" height="50.3396" fill="white" transform="translate(20.8301 20.8301)"/>
</clipPath>
</defs>
</svg>
