<svg width="92" height="92" viewBox="0 0 92 92" fill="none" xmlns="http://www.w3.org/2000/svg">
<circle cx="46" cy="46" r="46" fill="#A42D2B"/>
<path d="M60.6821 48.0976V35.5127H62.7796V29.2202H29.2199V35.5127H31.3174V48.0976H25.0249C25.0249 50.0482 26.0736 51.6843 28.1711 52.1457V62.78C28.1711 63.3362 28.3921 63.8698 28.7855 64.2631C29.1788 64.6565 29.7123 64.8774 30.2686 64.8774H32.3661C32.9224 64.8774 33.4559 64.6565 33.8492 64.2631C34.2426 63.8698 34.4636 63.3362 34.4636 62.78V60.6825H57.5359V62.78C57.5359 63.3362 57.7569 63.8698 58.1502 64.2631C58.5436 64.6565 59.0771 64.8774 59.6334 64.8774H61.7309C62.2872 64.8774 62.8207 64.6565 63.214 64.2631C63.6074 63.8698 63.8284 63.3362 63.8284 62.78V52.1457C65.9258 51.6633 66.9746 50.0482 66.9746 48.0976H60.6821ZM37.6098 52.2925C36.7754 52.2925 35.9751 51.9611 35.3851 51.371C34.7951 50.781 34.4636 49.9807 34.4636 49.1463C34.4636 48.3119 34.7951 47.5116 35.3851 46.9216C35.9751 46.3316 36.7754 46.0001 37.6098 46.0001C38.4442 46.0001 39.2445 46.3316 39.8345 46.9216C40.4246 47.5116 40.756 48.3119 40.756 49.1463C40.756 49.9807 40.4246 50.781 39.8345 51.371C39.2445 51.9611 38.4442 52.2925 37.6098 52.2925ZM54.3897 52.2925C53.5552 52.2925 52.755 51.9611 52.165 51.371C51.5749 50.781 51.2435 49.9807 51.2435 49.1463C51.2435 48.3119 51.5749 47.5116 52.165 46.9216C52.755 46.3316 53.5552 46.0001 54.3897 46.0001C55.2241 46.0001 56.0244 46.3316 56.6144 46.9216C57.2044 47.5116 57.5359 48.3119 57.5359 49.1463C57.5359 49.9807 57.2044 50.781 56.6144 51.371C56.0244 51.9611 55.2241 52.2925 54.3897 52.2925ZM57.5359 42.8539C54.2219 42.1827 50.2576 41.8051 45.9997 41.8051C41.7418 41.8051 37.6098 42.1827 34.4636 42.8539V35.5127H57.5359V42.8539Z" fill="white"/>
</svg>
