<svg width="93" height="92" viewBox="0 0 93 92" fill="none" xmlns="http://www.w3.org/2000/svg">
<circle cx="46.5" cy="46" r="46" fill="#A42D2B"/>
<path fill-rule="evenodd" clip-rule="evenodd" d="M47.1369 25.6055C49.1782 25.6055 50.8303 27.3064 50.8303 29.3477C50.8303 31.389 49.1782 33.0895 47.1369 33.0895C45.0956 33.0895 43.3947 31.3885 43.3947 29.3477C43.3947 27.3069 45.0961 25.6055 47.1369 25.6055ZM47.38 33.4298C48.7845 33.386 49.8703 34.2599 50.4417 35.1796L54.3294 41.6432L61.1333 44.5105C63.077 45.3361 62.1537 47.912 59.967 47.329C59.8887 47.2758 59.8076 47.2271 59.7238 47.183L55.1555 57.2912C55.1555 57.2912 56.6133 60.6449 58.4603 64.4359C60.2584 68.2748 55.8844 69.9275 54.2806 66.3796L52.6773 62.7833L50.3445 67.8862L49.3725 67.4488L52.0939 61.5198L47.5255 51.5576C47.3312 51.6059 47.1369 51.5576 46.8938 51.5576C46.8938 51.5576 41.5965 63.6094 40.1382 66.7687C38.7292 69.9275 34.55 68.0322 35.959 64.9212C37.3685 61.8112 44.0753 46.6973 44.0753 46.6973L39.0901 46.7788C38.335 46.7854 38.1543 46.665 38.1065 46.0992C38.0295 44.6041 37.8976 41.0864 38.2434 39.4559C38.6894 37.3542 38.9557 35.0411 40.4302 34.353C41.9046 33.6648 44.4639 35.5682 44.4639 35.5682C44.8525 34.3047 46.0677 33.4298 47.38 33.4298ZM50.3929 41.0109V46.8438L54.5726 55.9804L58.7518 46.7949L52.6773 44.2679C52.3853 44.1219 52.1427 43.9276 51.9479 43.6361L50.3929 41.0109Z" fill="white"/>
<path fill-rule="evenodd" clip-rule="evenodd" d="M31.8103 22.1755C31.7323 22.1616 31.6523 22.1638 31.5752 22.1819C28.5523 22.4001 26.1665 24.9212 26.1665 28.0001C26.1665 31.2218 28.7781 33.8334 31.9998 33.8334C34.5408 33.8334 36.7003 32.2094 37.5007 29.9443C37.533 29.8527 37.542 29.7546 37.5267 29.6586C37.5115 29.5627 37.4726 29.4721 37.4135 29.3951C37.3544 29.318 37.277 29.2569 37.1883 29.2174C37.0996 29.1778 37.0025 29.161 36.9057 29.1685C36.859 29.172 36.8444 29.1714 36.8316 29.1714H36.831L36.8147 29.1702C36.7653 29.1678 36.7159 29.1666 36.6665 29.1667C35.4288 29.1667 34.2418 28.6751 33.3667 27.7999C32.4915 26.9247 31.9998 25.7377 31.9998 24.5001C31.9998 23.9447 32.0704 23.4781 32.2355 23.0079C32.2724 22.9298 32.2915 22.8446 32.2915 22.7582V22.7501C32.2916 22.613 32.2434 22.4803 32.1554 22.3753C32.0674 22.2702 31.9452 22.1995 31.8103 22.1755Z" fill="white"/>
</svg>
